SplineFontDB: 3.0
FontName: OrangeDotted54
FullName: OrangeDotted54
FamilyName: OrangeDotted54
Weight: Book
Copyright: Copyright (c) 2016, S&C Software
Version: 001.000
ItalicAngle: 0
UnderlinePosition: -150
UnderlineWidth: 50
Ascent: 800
Descent: 200
InvalidEm: 0
sfntRevision: 0x00010000
LayerCount: 2
Layer: 0 1 "Back" 1
Layer: 1 1 "Fore" 0
XUID: [1021 452 -575645091 12606631]
FSType: 0
OS2Version: 4
OS2_WeightWidthSlopeOnly: 0
OS2_UseTypoMetrics: 1
CreationTime: 1456522883
ModificationTime: 1456669045
PfmFamily: 17
TTFWeight: 400
TTFWidth: 5
LineGap: 90
VLineGap: 0
Panose: 2 0 5 3 0 0 0 0 0 0
OS2TypoAscent: 800
OS2TypoAOffset: 0
OS2TypoDescent: -200
OS2TypoDOffset: 0
OS2TypoLinegap: 90
OS2WinAscent: 722
OS2WinAOffset: 0
OS2WinDescent: 98
OS2WinDOffset: 0
HheadAscent: 722
HheadAOffset: 0
HheadDescent: -98
HheadDOffset: 0
OS2SubXSize: 650
OS2SubYSize: 700
OS2SubXOff: 0
OS2SubYOff: 140
OS2SupXSize: 650
OS2SupYSize: 700
OS2SupXOff: 0
OS2SupYOff: 480
OS2StrikeYSize: 49
OS2StrikeYPos: 258
OS2CapHeight: 598
OS2XHeight: 598
OS2Vendor: 'PfEd'
OS2CodePages: 00000001.00000000
OS2UnicodeRanges: 00000001.00000000.00000000.00000000
MarkAttachClasses: 1
DEI: 91125
ShortTable: cvt  2
  33
  633
EndShort
ShortTable: maxp 16
  1
  0
  76
  140
  35
  0
  0
  2
  0
  1
  1
  0
  64
  46
  0
  0
EndShort
LangName: 1033 "" "" "Regular"
GaspTable: 1 65535 2 0
Encoding: UnicodeBmp
UnicodeInterp: none
NameList: AGL For New Fonts
DisplaySize: -48
AntiAlias: 1
FitToEm: 1
WinInfo: 0 25 9
BeginPrivate: 0
EndPrivate
BeginChars: 65539 73

StartChar: .notdef
Encoding: 65536 -1 0
Width: 364
Flags: W
LayerCount: 2
Back
Fore
SplineSet
33 0 m 1,0,-1
 33 666 l 1,1,-1
 298 666 l 1,2,-1
 298 0 l 1,3,-1
 33 0 l 1,0,-1
66 33 m 1,4,-1
 265 33 l 1,5,-1
 265 633 l 1,6,-1
 66 633 l 1,7,-1
 66 33 l 1,4,-1
EndSplineSet
EndChar

StartChar: uni001F
Encoding: 31 31 3
Width: 755
Flags: W
LayerCount: 2
Back
Fore
SplineSet
505 118 m 1,0,-1
 607 118 l 1,1,-1
 607 18 l 1,2,-1
 505 18 l 1,3,-1
 505 118 l 1,0,-1
505 238 m 1,4,-1
 607 238 l 1,5,-1
 607 138 l 1,6,-1
 505 138 l 1,7,-1
 505 238 l 1,4,-1
505 358 m 1,8,-1
 607 358 l 1,9,-1
 607 258 l 1,10,-1
 505 258 l 1,11,-1
 505 358 l 1,8,-1
505 478 m 1,12,-1
 607 478 l 1,13,-1
 607 378 l 1,14,-1
 505 378 l 1,15,-1
 505 478 l 1,12,-1
505 598 m 1,16,-1
 607 598 l 1,17,-1
 607 498 l 1,18,-1
 505 498 l 1,19,-1
 505 598 l 1,16,-1
385 119 m 1,20,-1
 487 119 l 1,21,-1
 487 19 l 1,22,-1
 385 19 l 1,23,-1
 385 119 l 1,20,-1
385 238 m 1,24,-1
 487 238 l 1,25,-1
 487 138 l 1,26,-1
 385 138 l 1,27,-1
 385 238 l 1,24,-1
385 358 m 1,28,-1
 487 358 l 1,29,-1
 487 258 l 1,30,-1
 385 258 l 1,31,-1
 385 358 l 1,28,-1
385 479 m 1,32,-1
 487 479 l 1,33,-1
 487 379 l 1,34,-1
 385 379 l 1,35,-1
 385 479 l 1,32,-1
385 598 m 1,36,-1
 487 598 l 1,37,-1
 487 498 l 1,38,-1
 385 498 l 1,39,-1
 385 598 l 1,36,-1
265 118 m 1,40,-1
 367 118 l 1,41,-1
 367 18 l 1,42,-1
 265 18 l 1,43,-1
 265 118 l 1,40,-1
265 238 m 1,44,-1
 367 238 l 1,45,-1
 367 138 l 1,46,-1
 265 138 l 1,47,-1
 265 238 l 1,44,-1
265 358 m 1,48,-1
 367 358 l 1,49,-1
 367 258 l 1,50,-1
 265 258 l 1,51,-1
 265 358 l 1,48,-1
265 478 m 1,52,-1
 367 478 l 1,53,-1
 367 378 l 1,54,-1
 265 378 l 1,55,-1
 265 478 l 1,52,-1
265 598 m 1,56,-1
 367 598 l 1,57,-1
 367 498 l 1,58,-1
 265 498 l 1,59,-1
 265 598 l 1,56,-1
145 119 m 1,60,-1
 247 119 l 1,61,-1
 247 19 l 1,62,-1
 145 19 l 1,63,-1
 145 119 l 1,60,-1
145 238 m 1,64,-1
 247 238 l 1,65,-1
 247 138 l 1,66,-1
 145 138 l 1,67,-1
 145 238 l 1,64,-1
145 358 m 1,68,-1
 247 358 l 1,69,-1
 247 258 l 1,70,-1
 145 258 l 1,71,-1
 145 358 l 1,68,-1
145 479 m 1,72,-1
 247 479 l 1,73,-1
 247 379 l 1,74,-1
 145 379 l 1,75,-1
 145 479 l 1,72,-1
145 598 m 1,76,-1
 247 598 l 1,77,-1
 247 498 l 1,78,-1
 145 498 l 1,79,-1
 145 598 l 1,76,-1
EndSplineSet
EndChar

StartChar: percent
Encoding: 37 37 4
Width: 755
Flags: W
LayerCount: 2
Back
Fore
SplineSet
355 499 m 1,0,-1
 457 499 l 1,1,-1
 457 399 l 1,2,-1
 355 399 l 1,3,-1
 355 499 l 1,0,-1
408 215 m 1,4,-1
 510 215 l 1,5,-1
 510 115 l 1,6,-1
 408 115 l 1,7,-1
 408 215 l 1,4,-1
289 380 m 1,8,-1
 391 380 l 1,9,-1
 391 280 l 1,10,-1
 289 280 l 1,11,-1
 289 380 l 1,8,-1
103 430 m 1,12,-1
 205 430 l 1,13,-1
 205 330 l 1,14,-1
 103 330 l 1,15,-1
 103 430 l 1,12,-1
146 139 m 1,16,-1
 248 139 l 1,17,-1
 248 39 l 1,18,-1
 146 39 l 1,19,-1
 146 139 l 1,16,-1
216 259 m 1,20,-1
 318 259 l 1,21,-1
 318 159 l 1,22,-1
 216 159 l 1,23,-1
 216 259 l 1,20,-1
EndSplineSet
EndChar

StartChar: plus
Encoding: 43 43 5
Width: 755
Flags: W
LayerCount: 2
Back
Fore
SplineSet
440 351 m 1,0,-1
 542 351 l 1,1,-1
 542 251 l 1,2,-1
 440 251 l 1,3,-1
 440 351 l 1,0,-1
320 231 m 1,4,-1
 422 231 l 1,5,-1
 422 131 l 1,6,-1
 320 131 l 1,7,-1
 320 231 l 1,4,-1
320 351 m 1,8,-1
 422 351 l 1,9,-1
 422 251 l 1,10,-1
 320 251 l 1,11,-1
 320 351 l 1,8,-1
320 471 m 1,12,-1
 422 471 l 1,13,-1
 422 371 l 1,14,-1
 320 371 l 1,15,-1
 320 471 l 1,12,-1
200 351 m 1,16,-1
 302 351 l 1,17,-1
 302 251 l 1,18,-1
 200 251 l 1,19,-1
 200 351 l 1,16,-1
EndSplineSet
EndChar

StartChar: slash
Encoding: 47 47 6
Width: 755
Flags: W
LayerCount: 2
Back
Fore
SplineSet
505 478 m 1,0,-1
 607 478 l 1,1,-1
 607 378 l 1,2,-1
 505 378 l 1,3,-1
 505 478 l 1,0,-1
385 358 m 1,4,-1
 487 358 l 1,5,-1
 487 258 l 1,6,-1
 385 258 l 1,7,-1
 385 358 l 1,4,-1
265 238 m 1,8,-1
 367 238 l 1,9,-1
 367 138 l 1,10,-1
 265 138 l 1,11,-1
 265 238 l 1,8,-1
145 119 m 1,12,-1
 247 119 l 1,13,-1
 247 19 l 1,14,-1
 145 19 l 1,15,-1
 145 119 l 1,12,-1
EndSplineSet
EndChar

StartChar: zero
Encoding: 48 48 7
Width: 550
Flags: W
LayerCount: 2
Back
Fore
SplineSet
404 118 m 1,0,-1
 506 118 l 1,1,-1
 506 18 l 1,2,-1
 404 18 l 1,3,-1
 404 118 l 1,0,-1
404 238 m 1,4,-1
 506 238 l 1,5,-1
 506 138 l 1,6,-1
 404 138 l 1,7,-1
 404 238 l 1,4,-1
404 358 m 1,8,-1
 506 358 l 1,9,-1
 506 258 l 1,10,-1
 404 258 l 1,11,-1
 404 358 l 1,8,-1
404 478 m 1,12,-1
 506 478 l 1,13,-1
 506 378 l 1,14,-1
 404 378 l 1,15,-1
 404 478 l 1,12,-1
404 598 m 1,16,-1
 506 598 l 1,17,-1
 506 498 l 1,18,-1
 404 498 l 1,19,-1
 404 598 l 1,16,-1
284 119 m 1,20,-1
 386 119 l 1,21,-1
 386 19 l 1,22,-1
 284 19 l 1,23,-1
 284 119 l 1,20,-1
284 598 m 1,24,-1
 386 598 l 1,25,-1
 386 498 l 1,26,-1
 284 498 l 1,27,-1
 284 598 l 1,24,-1
164 118 m 1,28,-1
 266 118 l 1,29,-1
 266 18 l 1,30,-1
 164 18 l 1,31,-1
 164 118 l 1,28,-1
164 598 m 1,32,-1
 266 598 l 1,33,-1
 266 498 l 1,34,-1
 164 498 l 1,35,-1
 164 598 l 1,32,-1
44 119 m 1,36,-1
 146 119 l 1,37,-1
 146 19 l 1,38,-1
 44 19 l 1,39,-1
 44 119 l 1,36,-1
44 238 m 1,40,-1
 146 238 l 1,41,-1
 146 138 l 1,42,-1
 44 138 l 1,43,-1
 44 238 l 1,40,-1
44 358 m 1,44,-1
 146 358 l 1,45,-1
 146 258 l 1,46,-1
 44 258 l 1,47,-1
 44 358 l 1,44,-1
44 479 m 1,48,-1
 146 479 l 1,49,-1
 146 379 l 1,50,-1
 44 379 l 1,51,-1
 44 479 l 1,48,-1
44 598 m 1,52,-1
 146 598 l 1,53,-1
 146 498 l 1,54,-1
 44 498 l 1,55,-1
 44 598 l 1,52,-1
EndSplineSet
EndChar

StartChar: one
Encoding: 49 49 8
Width: 550
Flags: W
LayerCount: 2
Back
Fore
SplineSet
224 119 m 1,0,-1
 326 119 l 1,1,-1
 326 19 l 1,2,-1
 224 19 l 1,3,-1
 224 119 l 1,0,-1
224 238 m 1,4,-1
 326 238 l 1,5,-1
 326 138 l 1,6,-1
 224 138 l 1,7,-1
 224 238 l 1,4,-1
224 358 m 1,8,-1
 326 358 l 1,9,-1
 326 258 l 1,10,-1
 224 258 l 1,11,-1
 224 358 l 1,8,-1
224 479 m 1,12,-1
 326 479 l 1,13,-1
 326 379 l 1,14,-1
 224 379 l 1,15,-1
 224 479 l 1,12,-1
224 598 m 1,16,-1
 326 598 l 1,17,-1
 326 498 l 1,18,-1
 224 498 l 1,19,-1
 224 598 l 1,16,-1
EndSplineSet
EndChar

StartChar: two
Encoding: 50 50 9
Width: 550
Flags: W
LayerCount: 2
Back
Fore
SplineSet
404 118 m 1,0,-1
 506 118 l 1,1,-1
 506 18 l 1,2,-1
 404 18 l 1,3,-1
 404 118 l 1,0,-1
404 358 m 1,4,-1
 506 358 l 1,5,-1
 506 258 l 1,6,-1
 404 258 l 1,7,-1
 404 358 l 1,4,-1
404 478 m 1,8,-1
 506 478 l 1,9,-1
 506 378 l 1,10,-1
 404 378 l 1,11,-1
 404 478 l 1,8,-1
404 598 m 1,12,-1
 506 598 l 1,13,-1
 506 498 l 1,14,-1
 404 498 l 1,15,-1
 404 598 l 1,12,-1
284 119 m 1,16,-1
 386 119 l 1,17,-1
 386 19 l 1,18,-1
 284 19 l 1,19,-1
 284 119 l 1,16,-1
284 358 m 1,20,-1
 386 358 l 1,21,-1
 386 258 l 1,22,-1
 284 258 l 1,23,-1
 284 358 l 1,20,-1
284 598 m 1,24,-1
 386 598 l 1,25,-1
 386 498 l 1,26,-1
 284 498 l 1,27,-1
 284 598 l 1,24,-1
164 118 m 1,28,-1
 266 118 l 1,29,-1
 266 18 l 1,30,-1
 164 18 l 1,31,-1
 164 118 l 1,28,-1
164 358 m 1,32,-1
 266 358 l 1,33,-1
 266 258 l 1,34,-1
 164 258 l 1,35,-1
 164 358 l 1,32,-1
164 598 m 1,36,-1
 266 598 l 1,37,-1
 266 498 l 1,38,-1
 164 498 l 1,39,-1
 164 598 l 1,36,-1
44 119 m 1,40,-1
 146 119 l 1,41,-1
 146 19 l 1,42,-1
 44 19 l 1,43,-1
 44 119 l 1,40,-1
44 238 m 1,44,-1
 146 238 l 1,45,-1
 146 138 l 1,46,-1
 44 138 l 1,47,-1
 44 238 l 1,44,-1
44 358 m 1,48,-1
 146 358 l 1,49,-1
 146 258 l 1,50,-1
 44 258 l 1,51,-1
 44 358 l 1,48,-1
44 598 m 1,52,-1
 146 598 l 1,53,-1
 146 498 l 1,54,-1
 44 498 l 1,55,-1
 44 598 l 1,52,-1
EndSplineSet
EndChar

StartChar: three
Encoding: 51 51 10
Width: 550
Flags: W
LayerCount: 2
Back
Fore
SplineSet
404 118 m 1,0,-1
 506 118 l 1,1,-1
 506 18 l 1,2,-1
 404 18 l 1,3,-1
 404 118 l 1,0,-1
404 238 m 1,4,-1
 506 238 l 1,5,-1
 506 138 l 1,6,-1
 404 138 l 1,7,-1
 404 238 l 1,4,-1
404 358 m 1,8,-1
 506 358 l 1,9,-1
 506 258 l 1,10,-1
 404 258 l 1,11,-1
 404 358 l 1,8,-1
404 478 m 1,12,-1
 506 478 l 1,13,-1
 506 378 l 1,14,-1
 404 378 l 1,15,-1
 404 478 l 1,12,-1
404 598 m 1,16,-1
 506 598 l 1,17,-1
 506 498 l 1,18,-1
 404 498 l 1,19,-1
 404 598 l 1,16,-1
284 119 m 1,20,-1
 386 119 l 1,21,-1
 386 19 l 1,22,-1
 284 19 l 1,23,-1
 284 119 l 1,20,-1
284 358 m 1,24,-1
 386 358 l 1,25,-1
 386 258 l 1,26,-1
 284 258 l 1,27,-1
 284 358 l 1,24,-1
284 598 m 1,28,-1
 386 598 l 1,29,-1
 386 498 l 1,30,-1
 284 498 l 1,31,-1
 284 598 l 1,28,-1
164 118 m 1,32,-1
 266 118 l 1,33,-1
 266 18 l 1,34,-1
 164 18 l 1,35,-1
 164 118 l 1,32,-1
164 358 m 1,36,-1
 266 358 l 1,37,-1
 266 258 l 1,38,-1
 164 258 l 1,39,-1
 164 358 l 1,36,-1
164 598 m 1,40,-1
 266 598 l 1,41,-1
 266 498 l 1,42,-1
 164 498 l 1,43,-1
 164 598 l 1,40,-1
44 119 m 1,44,-1
 146 119 l 1,45,-1
 146 19 l 1,46,-1
 44 19 l 1,47,-1
 44 119 l 1,44,-1
44 358 m 1,48,-1
 146 358 l 1,49,-1
 146 258 l 1,50,-1
 44 258 l 1,51,-1
 44 358 l 1,48,-1
44 598 m 1,52,-1
 146 598 l 1,53,-1
 146 498 l 1,54,-1
 44 498 l 1,55,-1
 44 598 l 1,52,-1
EndSplineSet
EndChar

StartChar: four
Encoding: 52 52 11
Width: 550
Flags: W
LayerCount: 2
Back
Fore
SplineSet
404 118 m 1,0,-1
 506 118 l 1,1,-1
 506 18 l 1,2,-1
 404 18 l 1,3,-1
 404 118 l 1,0,-1
404 238 m 1,4,-1
 506 238 l 1,5,-1
 506 138 l 1,6,-1
 404 138 l 1,7,-1
 404 238 l 1,4,-1
404 358 m 1,8,-1
 506 358 l 1,9,-1
 506 258 l 1,10,-1
 404 258 l 1,11,-1
 404 358 l 1,8,-1
404 478 m 1,12,-1
 506 478 l 1,13,-1
 506 378 l 1,14,-1
 404 378 l 1,15,-1
 404 478 l 1,12,-1
404 598 m 1,16,-1
 506 598 l 1,17,-1
 506 498 l 1,18,-1
 404 498 l 1,19,-1
 404 598 l 1,16,-1
284 358 m 1,20,-1
 386 358 l 1,21,-1
 386 258 l 1,22,-1
 284 258 l 1,23,-1
 284 358 l 1,20,-1
164 358 m 1,24,-1
 266 358 l 1,25,-1
 266 258 l 1,26,-1
 164 258 l 1,27,-1
 164 358 l 1,24,-1
44 358 m 1,28,-1
 146 358 l 1,29,-1
 146 258 l 1,30,-1
 44 258 l 1,31,-1
 44 358 l 1,28,-1
44 479 m 1,32,-1
 146 479 l 1,33,-1
 146 379 l 1,34,-1
 44 379 l 1,35,-1
 44 479 l 1,32,-1
44 598 m 1,36,-1
 146 598 l 1,37,-1
 146 498 l 1,38,-1
 44 498 l 1,39,-1
 44 598 l 1,36,-1
EndSplineSet
EndChar

StartChar: five
Encoding: 53 53 12
Width: 550
Flags: W
LayerCount: 2
Back
Fore
SplineSet
404 118 m 1,0,-1
 506 118 l 1,1,-1
 506 18 l 1,2,-1
 404 18 l 1,3,-1
 404 118 l 1,0,-1
404 238 m 1,4,-1
 506 238 l 1,5,-1
 506 138 l 1,6,-1
 404 138 l 1,7,-1
 404 238 l 1,4,-1
404 358 m 1,8,-1
 506 358 l 1,9,-1
 506 258 l 1,10,-1
 404 258 l 1,11,-1
 404 358 l 1,8,-1
404 598 m 1,12,-1
 506 598 l 1,13,-1
 506 498 l 1,14,-1
 404 498 l 1,15,-1
 404 598 l 1,12,-1
284 119 m 1,16,-1
 386 119 l 1,17,-1
 386 19 l 1,18,-1
 284 19 l 1,19,-1
 284 119 l 1,16,-1
284 358 m 1,20,-1
 386 358 l 1,21,-1
 386 258 l 1,22,-1
 284 258 l 1,23,-1
 284 358 l 1,20,-1
284 598 m 1,24,-1
 386 598 l 1,25,-1
 386 498 l 1,26,-1
 284 498 l 1,27,-1
 284 598 l 1,24,-1
164 118 m 1,28,-1
 266 118 l 1,29,-1
 266 18 l 1,30,-1
 164 18 l 1,31,-1
 164 118 l 1,28,-1
164 358 m 1,32,-1
 266 358 l 1,33,-1
 266 258 l 1,34,-1
 164 258 l 1,35,-1
 164 358 l 1,32,-1
164 598 m 1,36,-1
 266 598 l 1,37,-1
 266 498 l 1,38,-1
 164 498 l 1,39,-1
 164 598 l 1,36,-1
44 119 m 1,40,-1
 146 119 l 1,41,-1
 146 19 l 1,42,-1
 44 19 l 1,43,-1
 44 119 l 1,40,-1
44 358 m 1,44,-1
 146 358 l 1,45,-1
 146 258 l 1,46,-1
 44 258 l 1,47,-1
 44 358 l 1,44,-1
44 479 m 1,48,-1
 146 479 l 1,49,-1
 146 379 l 1,50,-1
 44 379 l 1,51,-1
 44 479 l 1,48,-1
44 598 m 1,52,-1
 146 598 l 1,53,-1
 146 498 l 1,54,-1
 44 498 l 1,55,-1
 44 598 l 1,52,-1
EndSplineSet
EndChar

StartChar: six
Encoding: 54 54 13
Width: 550
Flags: W
LayerCount: 2
Back
Fore
SplineSet
404 118 m 1,0,-1
 506 118 l 1,1,-1
 506 18 l 1,2,-1
 404 18 l 1,3,-1
 404 118 l 1,0,-1
404 238 m 1,4,-1
 506 238 l 1,5,-1
 506 138 l 1,6,-1
 404 138 l 1,7,-1
 404 238 l 1,4,-1
404 358 m 1,8,-1
 506 358 l 1,9,-1
 506 258 l 1,10,-1
 404 258 l 1,11,-1
 404 358 l 1,8,-1
404 598 m 1,12,-1
 506 598 l 1,13,-1
 506 498 l 1,14,-1
 404 498 l 1,15,-1
 404 598 l 1,12,-1
284 119 m 1,16,-1
 386 119 l 1,17,-1
 386 19 l 1,18,-1
 284 19 l 1,19,-1
 284 119 l 1,16,-1
284 358 m 1,20,-1
 386 358 l 1,21,-1
 386 258 l 1,22,-1
 284 258 l 1,23,-1
 284 358 l 1,20,-1
284 598 m 1,24,-1
 386 598 l 1,25,-1
 386 498 l 1,26,-1
 284 498 l 1,27,-1
 284 598 l 1,24,-1
164 118 m 1,28,-1
 266 118 l 1,29,-1
 266 18 l 1,30,-1
 164 18 l 1,31,-1
 164 118 l 1,28,-1
164 358 m 1,32,-1
 266 358 l 1,33,-1
 266 258 l 1,34,-1
 164 258 l 1,35,-1
 164 358 l 1,32,-1
164 598 m 1,36,-1
 266 598 l 1,37,-1
 266 498 l 1,38,-1
 164 498 l 1,39,-1
 164 598 l 1,36,-1
44 119 m 1,40,-1
 146 119 l 1,41,-1
 146 19 l 1,42,-1
 44 19 l 1,43,-1
 44 119 l 1,40,-1
44 238 m 1,44,-1
 146 238 l 1,45,-1
 146 138 l 1,46,-1
 44 138 l 1,47,-1
 44 238 l 1,44,-1
44 358 m 1,48,-1
 146 358 l 1,49,-1
 146 258 l 1,50,-1
 44 258 l 1,51,-1
 44 358 l 1,48,-1
44 479 m 1,52,-1
 146 479 l 1,53,-1
 146 379 l 1,54,-1
 44 379 l 1,55,-1
 44 479 l 1,52,-1
44 598 m 1,56,-1
 146 598 l 1,57,-1
 146 498 l 1,58,-1
 44 498 l 1,59,-1
 44 598 l 1,56,-1
EndSplineSet
EndChar

StartChar: seven
Encoding: 55 55 14
Width: 550
Flags: W
LayerCount: 2
Back
Fore
SplineSet
404 118 m 1,0,-1
 506 118 l 1,1,-1
 506 18 l 1,2,-1
 404 18 l 1,3,-1
 404 118 l 1,0,-1
404 238 m 1,4,-1
 506 238 l 1,5,-1
 506 138 l 1,6,-1
 404 138 l 1,7,-1
 404 238 l 1,4,-1
404 358 m 1,8,-1
 506 358 l 1,9,-1
 506 258 l 1,10,-1
 404 258 l 1,11,-1
 404 358 l 1,8,-1
404 478 m 1,12,-1
 506 478 l 1,13,-1
 506 378 l 1,14,-1
 404 378 l 1,15,-1
 404 478 l 1,12,-1
404 598 m 1,16,-1
 506 598 l 1,17,-1
 506 498 l 1,18,-1
 404 498 l 1,19,-1
 404 598 l 1,16,-1
284 598 m 1,20,-1
 386 598 l 1,21,-1
 386 498 l 1,22,-1
 284 498 l 1,23,-1
 284 598 l 1,20,-1
164 598 m 1,24,-1
 266 598 l 1,25,-1
 266 498 l 1,26,-1
 164 498 l 1,27,-1
 164 598 l 1,24,-1
44 598 m 1,28,-1
 146 598 l 1,29,-1
 146 498 l 1,30,-1
 44 498 l 1,31,-1
 44 598 l 1,28,-1
EndSplineSet
EndChar

StartChar: eight
Encoding: 56 56 15
Width: 550
Flags: W
LayerCount: 2
Back
Fore
SplineSet
404 118 m 1,0,-1
 506 118 l 1,1,-1
 506 18 l 1,2,-1
 404 18 l 1,3,-1
 404 118 l 1,0,-1
404 238 m 1,4,-1
 506 238 l 1,5,-1
 506 138 l 1,6,-1
 404 138 l 1,7,-1
 404 238 l 1,4,-1
404 358 m 1,8,-1
 506 358 l 1,9,-1
 506 258 l 1,10,-1
 404 258 l 1,11,-1
 404 358 l 1,8,-1
404 478 m 1,12,-1
 506 478 l 1,13,-1
 506 378 l 1,14,-1
 404 378 l 1,15,-1
 404 478 l 1,12,-1
404 598 m 1,16,-1
 506 598 l 1,17,-1
 506 498 l 1,18,-1
 404 498 l 1,19,-1
 404 598 l 1,16,-1
284 119 m 1,20,-1
 386 119 l 1,21,-1
 386 19 l 1,22,-1
 284 19 l 1,23,-1
 284 119 l 1,20,-1
284 358 m 1,24,-1
 386 358 l 1,25,-1
 386 258 l 1,26,-1
 284 258 l 1,27,-1
 284 358 l 1,24,-1
284 598 m 1,28,-1
 386 598 l 1,29,-1
 386 498 l 1,30,-1
 284 498 l 1,31,-1
 284 598 l 1,28,-1
164 118 m 1,32,-1
 266 118 l 1,33,-1
 266 18 l 1,34,-1
 164 18 l 1,35,-1
 164 118 l 1,32,-1
164 358 m 1,36,-1
 266 358 l 1,37,-1
 266 258 l 1,38,-1
 164 258 l 1,39,-1
 164 358 l 1,36,-1
164 598 m 1,40,-1
 266 598 l 1,41,-1
 266 498 l 1,42,-1
 164 498 l 1,43,-1
 164 598 l 1,40,-1
44 119 m 1,44,-1
 146 119 l 1,45,-1
 146 19 l 1,46,-1
 44 19 l 1,47,-1
 44 119 l 1,44,-1
44 238 m 1,48,-1
 146 238 l 1,49,-1
 146 138 l 1,50,-1
 44 138 l 1,51,-1
 44 238 l 1,48,-1
44 358 m 1,52,-1
 146 358 l 1,53,-1
 146 258 l 1,54,-1
 44 258 l 1,55,-1
 44 358 l 1,52,-1
44 479 m 1,56,-1
 146 479 l 1,57,-1
 146 379 l 1,58,-1
 44 379 l 1,59,-1
 44 479 l 1,56,-1
44 598 m 1,60,-1
 146 598 l 1,61,-1
 146 498 l 1,62,-1
 44 498 l 1,63,-1
 44 598 l 1,60,-1
EndSplineSet
EndChar

StartChar: nine
Encoding: 57 57 16
Width: 550
Flags: W
LayerCount: 2
Back
Fore
SplineSet
404 118 m 1,0,-1
 506 118 l 1,1,-1
 506 18 l 1,2,-1
 404 18 l 1,3,-1
 404 118 l 1,0,-1
404 238 m 1,4,-1
 506 238 l 1,5,-1
 506 138 l 1,6,-1
 404 138 l 1,7,-1
 404 238 l 1,4,-1
404 358 m 1,8,-1
 506 358 l 1,9,-1
 506 258 l 1,10,-1
 404 258 l 1,11,-1
 404 358 l 1,8,-1
404 478 m 1,12,-1
 506 478 l 1,13,-1
 506 378 l 1,14,-1
 404 378 l 1,15,-1
 404 478 l 1,12,-1
404 598 m 1,16,-1
 506 598 l 1,17,-1
 506 498 l 1,18,-1
 404 498 l 1,19,-1
 404 598 l 1,16,-1
284 119 m 1,20,-1
 386 119 l 1,21,-1
 386 19 l 1,22,-1
 284 19 l 1,23,-1
 284 119 l 1,20,-1
284 358 m 1,24,-1
 386 358 l 1,25,-1
 386 258 l 1,26,-1
 284 258 l 1,27,-1
 284 358 l 1,24,-1
284 598 m 1,28,-1
 386 598 l 1,29,-1
 386 498 l 1,30,-1
 284 498 l 1,31,-1
 284 598 l 1,28,-1
164 118 m 1,32,-1
 266 118 l 1,33,-1
 266 18 l 1,34,-1
 164 18 l 1,35,-1
 164 118 l 1,32,-1
164 358 m 1,36,-1
 266 358 l 1,37,-1
 266 258 l 1,38,-1
 164 258 l 1,39,-1
 164 358 l 1,36,-1
164 598 m 1,40,-1
 266 598 l 1,41,-1
 266 498 l 1,42,-1
 164 498 l 1,43,-1
 164 598 l 1,40,-1
44 119 m 1,44,-1
 146 119 l 1,45,-1
 146 19 l 1,46,-1
 44 19 l 1,47,-1
 44 119 l 1,44,-1
44 358 m 1,48,-1
 146 358 l 1,49,-1
 146 258 l 1,50,-1
 44 258 l 1,51,-1
 44 358 l 1,48,-1
44 479 m 1,52,-1
 146 479 l 1,53,-1
 146 379 l 1,54,-1
 44 379 l 1,55,-1
 44 479 l 1,52,-1
44 598 m 1,56,-1
 146 598 l 1,57,-1
 146 498 l 1,58,-1
 44 498 l 1,59,-1
 44 598 l 1,56,-1
EndSplineSet
EndChar

StartChar: colon
Encoding: 58 58 17
Width: 317
Flags: W
LayerCount: 2
Back
Fore
SplineSet
116 238 m 1,0,-1
 218 238 l 1,1,-1
 218 138 l 1,2,-1
 116 138 l 1,3,-1
 116 238 l 1,0,-1
116 479 m 1,4,-1
 218 479 l 1,5,-1
 218 379 l 1,6,-1
 116 379 l 1,7,-1
 116 479 l 1,4,-1
EndSplineSet
EndChar

StartChar: semicolon
Encoding: 59 59 18
Width: 317
Flags: W
LayerCount: 2
Back
Fore
SplineSet
116 238 m 1,0,-1
 218 238 l 1,1,-1
 144 136 l 5,2,-1
 42 136 l 5,3,-1
 116 238 l 1,0,-1
116 479 m 1,4,-1
 218 479 l 1,5,-1
 218 379 l 1,6,-1
 116 379 l 1,7,-1
 116 479 l 1,4,-1
EndSplineSet
EndChar

StartChar: question
Encoding: 63 63 19
Width: 755
Flags: W
LayerCount: 2
Back
Fore
SplineSet
484 562 m 5,0,-1
 586 562 l 5,1,-1
 586 462 l 5,2,-1
 484 462 l 5,3,-1
 484 562 l 5,0,-1
385 120 m 1,4,-1
 487 120 l 1,5,-1
 487 20 l 1,6,-1
 385 20 l 1,7,-1
 385 120 l 1,4,-1
385 304 m 5,8,-1
 487 304 l 5,9,-1
 487 204 l 5,10,-1
 385 204 l 5,11,-1
 385 304 l 5,8,-1
413 434 m 5,12,-1
 515 434 l 5,13,-1
 515 334 l 5,14,-1
 413 334 l 5,15,-1
 413 434 l 5,12,-1
412 682 m 5,16,-1
 514 682 l 5,17,-1
 514 582 l 5,18,-1
 412 582 l 5,19,-1
 412 682 l 5,16,-1
290 682 m 5,20,-1
 392 682 l 5,21,-1
 392 582 l 5,22,-1
 290 582 l 5,23,-1
 290 682 l 5,20,-1
194 563 m 5,24,-1
 296 563 l 5,25,-1
 296 463 l 5,26,-1
 194 463 l 5,27,-1
 194 563 l 5,24,-1
EndSplineSet
EndChar

StartChar: A
Encoding: 65 65 20
Width: 550
Flags: W
LayerCount: 2
Back
Fore
SplineSet
404 118 m 1,0,-1
 506 118 l 1,1,-1
 506 18 l 1,2,-1
 404 18 l 1,3,-1
 404 118 l 1,0,-1
404 238 m 1,4,-1
 506 238 l 1,5,-1
 506 138 l 1,6,-1
 404 138 l 1,7,-1
 404 238 l 1,4,-1
404 358 m 1,8,-1
 506 358 l 1,9,-1
 506 258 l 1,10,-1
 404 258 l 1,11,-1
 404 358 l 1,8,-1
404 478 m 1,12,-1
 506 478 l 1,13,-1
 506 378 l 1,14,-1
 404 378 l 1,15,-1
 404 478 l 1,12,-1
404 598 m 1,16,-1
 506 598 l 1,17,-1
 506 498 l 1,18,-1
 404 498 l 1,19,-1
 404 598 l 1,16,-1
284 358 m 1,20,-1
 386 358 l 1,21,-1
 386 258 l 1,22,-1
 284 258 l 1,23,-1
 284 358 l 1,20,-1
284 598 m 1,24,-1
 386 598 l 1,25,-1
 386 498 l 1,26,-1
 284 498 l 1,27,-1
 284 598 l 1,24,-1
164 358 m 1,28,-1
 266 358 l 1,29,-1
 266 258 l 1,30,-1
 164 258 l 1,31,-1
 164 358 l 1,28,-1
164 598 m 1,32,-1
 266 598 l 1,33,-1
 266 498 l 1,34,-1
 164 498 l 1,35,-1
 164 598 l 1,32,-1
44 119 m 1,36,-1
 146 119 l 1,37,-1
 146 19 l 1,38,-1
 44 19 l 1,39,-1
 44 119 l 1,36,-1
44 238 m 1,40,-1
 146 238 l 1,41,-1
 146 138 l 1,42,-1
 44 138 l 1,43,-1
 44 238 l 1,40,-1
44 358 m 1,44,-1
 146 358 l 1,45,-1
 146 258 l 1,46,-1
 44 258 l 1,47,-1
 44 358 l 1,44,-1
44 479 m 1,48,-1
 146 479 l 1,49,-1
 146 379 l 1,50,-1
 44 379 l 1,51,-1
 44 479 l 1,48,-1
44 598 m 1,52,-1
 146 598 l 1,53,-1
 146 498 l 1,54,-1
 44 498 l 1,55,-1
 44 598 l 1,52,-1
EndSplineSet
EndChar

StartChar: B
Encoding: 66 66 21
Width: 550
Flags: W
LayerCount: 2
Back
Fore
SplineSet
404 118 m 1,0,-1
 506 118 l 1,1,-1
 506 18 l 1,2,-1
 404 18 l 1,3,-1
 404 118 l 1,0,-1
404 238 m 1,4,-1
 506 238 l 1,5,-1
 506 138 l 1,6,-1
 404 138 l 1,7,-1
 404 238 l 1,4,-1
404 478 m 1,8,-1
 506 478 l 1,9,-1
 506 378 l 1,10,-1
 404 378 l 1,11,-1
 404 478 l 1,8,-1
404 598 m 1,12,-1
 506 598 l 1,13,-1
 506 498 l 1,14,-1
 404 498 l 1,15,-1
 404 598 l 1,12,-1
284 119 m 1,16,-1
 386 119 l 1,17,-1
 386 19 l 1,18,-1
 284 19 l 1,19,-1
 284 119 l 1,16,-1
284 358 m 1,20,-1
 386 358 l 1,21,-1
 386 258 l 1,22,-1
 284 258 l 1,23,-1
 284 358 l 1,20,-1
284 598 m 1,24,-1
 386 598 l 1,25,-1
 386 498 l 1,26,-1
 284 498 l 1,27,-1
 284 598 l 1,24,-1
164 118 m 1,28,-1
 266 118 l 1,29,-1
 266 18 l 1,30,-1
 164 18 l 1,31,-1
 164 118 l 1,28,-1
164 358 m 1,32,-1
 266 358 l 1,33,-1
 266 258 l 1,34,-1
 164 258 l 1,35,-1
 164 358 l 1,32,-1
164 598 m 1,36,-1
 266 598 l 1,37,-1
 266 498 l 1,38,-1
 164 498 l 1,39,-1
 164 598 l 1,36,-1
44 119 m 1,40,-1
 146 119 l 1,41,-1
 146 19 l 1,42,-1
 44 19 l 1,43,-1
 44 119 l 1,40,-1
44 238 m 1,44,-1
 146 238 l 1,45,-1
 146 138 l 1,46,-1
 44 138 l 1,47,-1
 44 238 l 1,44,-1
44 358 m 1,48,-1
 146 358 l 1,49,-1
 146 258 l 1,50,-1
 44 258 l 1,51,-1
 44 358 l 1,48,-1
44 479 m 1,52,-1
 146 479 l 1,53,-1
 146 379 l 1,54,-1
 44 379 l 1,55,-1
 44 479 l 1,52,-1
44 598 m 1,56,-1
 146 598 l 1,57,-1
 146 498 l 1,58,-1
 44 498 l 1,59,-1
 44 598 l 1,56,-1
EndSplineSet
EndChar

StartChar: C
Encoding: 67 67 22
Width: 550
Flags: W
LayerCount: 2
Back
Fore
SplineSet
404 118 m 1,0,-1
 506 118 l 1,1,-1
 506 18 l 1,2,-1
 404 18 l 1,3,-1
 404 118 l 1,0,-1
404 598 m 1,4,-1
 506 598 l 1,5,-1
 506 498 l 1,6,-1
 404 498 l 1,7,-1
 404 598 l 1,4,-1
284 119 m 1,8,-1
 386 119 l 1,9,-1
 386 19 l 1,10,-1
 284 19 l 1,11,-1
 284 119 l 1,8,-1
284 598 m 1,12,-1
 386 598 l 1,13,-1
 386 498 l 1,14,-1
 284 498 l 1,15,-1
 284 598 l 1,12,-1
164 118 m 1,16,-1
 266 118 l 1,17,-1
 266 18 l 1,18,-1
 164 18 l 1,19,-1
 164 118 l 1,16,-1
164 598 m 1,20,-1
 266 598 l 1,21,-1
 266 498 l 1,22,-1
 164 498 l 1,23,-1
 164 598 l 1,20,-1
44 119 m 1,24,-1
 146 119 l 1,25,-1
 146 19 l 1,26,-1
 44 19 l 1,27,-1
 44 119 l 1,24,-1
44 238 m 1,28,-1
 146 238 l 1,29,-1
 146 138 l 1,30,-1
 44 138 l 1,31,-1
 44 238 l 1,28,-1
44 358 m 1,32,-1
 146 358 l 1,33,-1
 146 258 l 1,34,-1
 44 258 l 1,35,-1
 44 358 l 1,32,-1
44 479 m 1,36,-1
 146 479 l 1,37,-1
 146 379 l 1,38,-1
 44 379 l 1,39,-1
 44 479 l 1,36,-1
44 598 m 1,40,-1
 146 598 l 1,41,-1
 146 498 l 1,42,-1
 44 498 l 1,43,-1
 44 598 l 1,40,-1
EndSplineSet
EndChar

StartChar: D
Encoding: 68 68 23
Width: 550
Flags: W
LayerCount: 2
Back
Fore
SplineSet
404 238 m 1,0,-1
 506 238 l 1,1,-1
 506 138 l 1,2,-1
 404 138 l 1,3,-1
 404 238 l 1,0,-1
404 358 m 1,4,-1
 506 358 l 1,5,-1
 506 258 l 1,6,-1
 404 258 l 1,7,-1
 404 358 l 1,4,-1
404 478 m 1,8,-1
 506 478 l 1,9,-1
 506 378 l 1,10,-1
 404 378 l 1,11,-1
 404 478 l 1,8,-1
284 119 m 1,12,-1
 386 119 l 1,13,-1
 386 19 l 1,14,-1
 284 19 l 1,15,-1
 284 119 l 1,12,-1
284 598 m 1,16,-1
 386 598 l 1,17,-1
 386 498 l 1,18,-1
 284 498 l 1,19,-1
 284 598 l 1,16,-1
164 118 m 1,20,-1
 266 118 l 1,21,-1
 266 18 l 1,22,-1
 164 18 l 1,23,-1
 164 118 l 1,20,-1
164 598 m 1,24,-1
 266 598 l 1,25,-1
 266 498 l 1,26,-1
 164 498 l 1,27,-1
 164 598 l 1,24,-1
44 119 m 1,28,-1
 146 119 l 1,29,-1
 146 19 l 1,30,-1
 44 19 l 1,31,-1
 44 119 l 1,28,-1
44 238 m 1,32,-1
 146 238 l 1,33,-1
 146 138 l 1,34,-1
 44 138 l 1,35,-1
 44 238 l 1,32,-1
44 358 m 1,36,-1
 146 358 l 1,37,-1
 146 258 l 1,38,-1
 44 258 l 1,39,-1
 44 358 l 1,36,-1
44 479 m 1,40,-1
 146 479 l 1,41,-1
 146 379 l 1,42,-1
 44 379 l 1,43,-1
 44 479 l 1,40,-1
44 598 m 1,44,-1
 146 598 l 1,45,-1
 146 498 l 1,46,-1
 44 498 l 1,47,-1
 44 598 l 1,44,-1
EndSplineSet
EndChar

StartChar: E
Encoding: 69 69 24
Width: 550
Flags: W
LayerCount: 2
Back
Fore
SplineSet
404 118 m 1,0,-1
 506 118 l 1,1,-1
 506 18 l 1,2,-1
 404 18 l 1,3,-1
 404 118 l 1,0,-1
404 358 m 1,4,-1
 506 358 l 1,5,-1
 506 258 l 1,6,-1
 404 258 l 1,7,-1
 404 358 l 1,4,-1
404 598 m 1,8,-1
 506 598 l 1,9,-1
 506 498 l 1,10,-1
 404 498 l 1,11,-1
 404 598 l 1,8,-1
284 119 m 1,12,-1
 386 119 l 1,13,-1
 386 19 l 1,14,-1
 284 19 l 1,15,-1
 284 119 l 1,12,-1
284 358 m 1,16,-1
 386 358 l 1,17,-1
 386 258 l 1,18,-1
 284 258 l 1,19,-1
 284 358 l 1,16,-1
284 598 m 1,20,-1
 386 598 l 1,21,-1
 386 498 l 1,22,-1
 284 498 l 1,23,-1
 284 598 l 1,20,-1
164 118 m 1,24,-1
 266 118 l 1,25,-1
 266 18 l 1,26,-1
 164 18 l 1,27,-1
 164 118 l 1,24,-1
164 358 m 1,28,-1
 266 358 l 1,29,-1
 266 258 l 1,30,-1
 164 258 l 1,31,-1
 164 358 l 1,28,-1
164 598 m 1,32,-1
 266 598 l 1,33,-1
 266 498 l 1,34,-1
 164 498 l 1,35,-1
 164 598 l 1,32,-1
44 119 m 1,36,-1
 146 119 l 1,37,-1
 146 19 l 1,38,-1
 44 19 l 1,39,-1
 44 119 l 1,36,-1
44 238 m 1,40,-1
 146 238 l 1,41,-1
 146 138 l 1,42,-1
 44 138 l 1,43,-1
 44 238 l 1,40,-1
44 358 m 1,44,-1
 146 358 l 1,45,-1
 146 258 l 1,46,-1
 44 258 l 1,47,-1
 44 358 l 1,44,-1
44 479 m 1,48,-1
 146 479 l 1,49,-1
 146 379 l 1,50,-1
 44 379 l 1,51,-1
 44 479 l 1,48,-1
44 598 m 1,52,-1
 146 598 l 1,53,-1
 146 498 l 1,54,-1
 44 498 l 1,55,-1
 44 598 l 1,52,-1
EndSplineSet
EndChar

StartChar: F
Encoding: 70 70 25
Width: 550
Flags: W
LayerCount: 2
Back
Fore
SplineSet
404 598 m 1,0,-1
 506 598 l 1,1,-1
 506 498 l 1,2,-1
 404 498 l 1,3,-1
 404 598 l 1,0,-1
284 358 m 1,4,-1
 386 358 l 1,5,-1
 386 258 l 1,6,-1
 284 258 l 1,7,-1
 284 358 l 1,4,-1
284 598 m 1,8,-1
 386 598 l 1,9,-1
 386 498 l 1,10,-1
 284 498 l 1,11,-1
 284 598 l 1,8,-1
164 358 m 1,12,-1
 266 358 l 1,13,-1
 266 258 l 1,14,-1
 164 258 l 1,15,-1
 164 358 l 1,12,-1
164 598 m 1,16,-1
 266 598 l 1,17,-1
 266 498 l 1,18,-1
 164 498 l 1,19,-1
 164 598 l 1,16,-1
44 119 m 1,20,-1
 146 119 l 1,21,-1
 146 19 l 1,22,-1
 44 19 l 1,23,-1
 44 119 l 1,20,-1
44 238 m 1,24,-1
 146 238 l 1,25,-1
 146 138 l 1,26,-1
 44 138 l 1,27,-1
 44 238 l 1,24,-1
44 358 m 1,28,-1
 146 358 l 1,29,-1
 146 258 l 1,30,-1
 44 258 l 1,31,-1
 44 358 l 1,28,-1
44 479 m 1,32,-1
 146 479 l 1,33,-1
 146 379 l 1,34,-1
 44 379 l 1,35,-1
 44 479 l 1,32,-1
44 598 m 1,36,-1
 146 598 l 1,37,-1
 146 498 l 1,38,-1
 44 498 l 1,39,-1
 44 598 l 1,36,-1
EndSplineSet
EndChar

StartChar: G
Encoding: 71 71 26
Width: 550
Flags: W
LayerCount: 2
Back
Fore
SplineSet
404 118 m 1,0,-1
 506 118 l 1,1,-1
 506 18 l 1,2,-1
 404 18 l 1,3,-1
 404 118 l 1,0,-1
404 238 m 1,4,-1
 506 238 l 1,5,-1
 506 138 l 1,6,-1
 404 138 l 1,7,-1
 404 238 l 1,4,-1
404 358 m 1,8,-1
 506 358 l 1,9,-1
 506 258 l 1,10,-1
 404 258 l 1,11,-1
 404 358 l 1,8,-1
404 598 m 1,12,-1
 506 598 l 1,13,-1
 506 498 l 1,14,-1
 404 498 l 1,15,-1
 404 598 l 1,12,-1
284 119 m 1,16,-1
 386 119 l 1,17,-1
 386 19 l 1,18,-1
 284 19 l 1,19,-1
 284 119 l 1,16,-1
284 358 m 1,20,-1
 386 358 l 1,21,-1
 386 258 l 1,22,-1
 284 258 l 1,23,-1
 284 358 l 1,20,-1
284 598 m 1,24,-1
 386 598 l 1,25,-1
 386 498 l 1,26,-1
 284 498 l 1,27,-1
 284 598 l 1,24,-1
164 118 m 1,28,-1
 266 118 l 1,29,-1
 266 18 l 1,30,-1
 164 18 l 1,31,-1
 164 118 l 1,28,-1
164 598 m 1,32,-1
 266 598 l 1,33,-1
 266 498 l 1,34,-1
 164 498 l 1,35,-1
 164 598 l 1,32,-1
44 119 m 1,36,-1
 146 119 l 1,37,-1
 146 19 l 1,38,-1
 44 19 l 1,39,-1
 44 119 l 1,36,-1
44 238 m 1,40,-1
 146 238 l 1,41,-1
 146 138 l 1,42,-1
 44 138 l 1,43,-1
 44 238 l 1,40,-1
44 358 m 1,44,-1
 146 358 l 1,45,-1
 146 258 l 1,46,-1
 44 258 l 1,47,-1
 44 358 l 1,44,-1
44 479 m 1,48,-1
 146 479 l 1,49,-1
 146 379 l 1,50,-1
 44 379 l 1,51,-1
 44 479 l 1,48,-1
44 598 m 1,52,-1
 146 598 l 1,53,-1
 146 498 l 1,54,-1
 44 498 l 1,55,-1
 44 598 l 1,52,-1
EndSplineSet
EndChar

StartChar: H
Encoding: 72 72 27
Width: 550
Flags: W
LayerCount: 2
Back
Fore
SplineSet
404 118 m 1,0,-1
 506 118 l 1,1,-1
 506 18 l 1,2,-1
 404 18 l 1,3,-1
 404 118 l 1,0,-1
404 238 m 1,4,-1
 506 238 l 1,5,-1
 506 138 l 1,6,-1
 404 138 l 1,7,-1
 404 238 l 1,4,-1
404 358 m 1,8,-1
 506 358 l 1,9,-1
 506 258 l 1,10,-1
 404 258 l 1,11,-1
 404 358 l 1,8,-1
404 478 m 1,12,-1
 506 478 l 1,13,-1
 506 378 l 1,14,-1
 404 378 l 1,15,-1
 404 478 l 1,12,-1
404 598 m 1,16,-1
 506 598 l 1,17,-1
 506 498 l 1,18,-1
 404 498 l 1,19,-1
 404 598 l 1,16,-1
284 358 m 1,20,-1
 386 358 l 1,21,-1
 386 258 l 1,22,-1
 284 258 l 1,23,-1
 284 358 l 1,20,-1
164 358 m 1,24,-1
 266 358 l 1,25,-1
 266 258 l 1,26,-1
 164 258 l 1,27,-1
 164 358 l 1,24,-1
44 119 m 1,28,-1
 146 119 l 1,29,-1
 146 19 l 1,30,-1
 44 19 l 1,31,-1
 44 119 l 1,28,-1
44 238 m 1,32,-1
 146 238 l 1,33,-1
 146 138 l 1,34,-1
 44 138 l 1,35,-1
 44 238 l 1,32,-1
44 358 m 1,36,-1
 146 358 l 1,37,-1
 146 258 l 1,38,-1
 44 258 l 1,39,-1
 44 358 l 1,36,-1
44 479 m 1,40,-1
 146 479 l 1,41,-1
 146 379 l 1,42,-1
 44 379 l 1,43,-1
 44 479 l 1,40,-1
44 598 m 1,44,-1
 146 598 l 1,45,-1
 146 498 l 1,46,-1
 44 498 l 1,47,-1
 44 598 l 1,44,-1
EndSplineSet
EndChar

StartChar: I
Encoding: 73 73 28
Width: 550
Flags: W
LayerCount: 2
Back
Fore
SplineSet
224 119 m 1,0,-1
 326 119 l 1,1,-1
 326 19 l 1,2,-1
 224 19 l 1,3,-1
 224 119 l 1,0,-1
224 238 m 1,4,-1
 326 238 l 1,5,-1
 326 138 l 1,6,-1
 224 138 l 1,7,-1
 224 238 l 1,4,-1
224 358 m 1,8,-1
 326 358 l 1,9,-1
 326 258 l 1,10,-1
 224 258 l 1,11,-1
 224 358 l 1,8,-1
224 479 m 1,12,-1
 326 479 l 1,13,-1
 326 379 l 1,14,-1
 224 379 l 1,15,-1
 224 479 l 1,12,-1
224 598 m 1,16,-1
 326 598 l 1,17,-1
 326 498 l 1,18,-1
 224 498 l 1,19,-1
 224 598 l 1,16,-1
EndSplineSet
EndChar

StartChar: J
Encoding: 74 74 29
Width: 550
Flags: W
LayerCount: 2
Back
Fore
SplineSet
404 238 m 1,0,-1
 506 238 l 1,1,-1
 506 138 l 1,2,-1
 404 138 l 1,3,-1
 404 238 l 1,0,-1
404 358 m 1,4,-1
 506 358 l 1,5,-1
 506 258 l 1,6,-1
 404 258 l 1,7,-1
 404 358 l 1,4,-1
404 478 m 1,8,-1
 506 478 l 1,9,-1
 506 378 l 1,10,-1
 404 378 l 1,11,-1
 404 478 l 1,8,-1
404 598 m 1,12,-1
 506 598 l 1,13,-1
 506 498 l 1,14,-1
 404 498 l 1,15,-1
 404 598 l 1,12,-1
284 119 m 1,16,-1
 386 119 l 1,17,-1
 386 19 l 1,18,-1
 284 19 l 1,19,-1
 284 119 l 1,16,-1
164 118 m 1,20,-1
 266 118 l 1,21,-1
 266 18 l 1,22,-1
 164 18 l 1,23,-1
 164 118 l 1,20,-1
44 119 m 1,24,-1
 146 119 l 1,25,-1
 146 19 l 1,26,-1
 44 19 l 1,27,-1
 44 119 l 1,24,-1
EndSplineSet
EndChar

StartChar: K
Encoding: 75 75 30
Width: 550
Flags: W
LayerCount: 2
Back
Fore
SplineSet
404 118 m 1,0,-1
 506 118 l 1,1,-1
 506 18 l 1,2,-1
 404 18 l 1,3,-1
 404 118 l 1,0,-1
404 598 m 1,4,-1
 506 598 l 1,5,-1
 506 498 l 1,6,-1
 404 498 l 1,7,-1
 404 598 l 1,4,-1
284 238 m 1,8,-1
 386 238 l 1,9,-1
 386 138 l 1,10,-1
 284 138 l 1,11,-1
 284 238 l 1,8,-1
284 479 m 1,12,-1
 386 479 l 1,13,-1
 386 379 l 1,14,-1
 284 379 l 1,15,-1
 284 479 l 1,12,-1
164 358 m 1,16,-1
 266 358 l 1,17,-1
 266 258 l 1,18,-1
 164 258 l 1,19,-1
 164 358 l 1,16,-1
44 119 m 1,20,-1
 146 119 l 1,21,-1
 146 19 l 1,22,-1
 44 19 l 1,23,-1
 44 119 l 1,20,-1
44 238 m 1,24,-1
 146 238 l 1,25,-1
 146 138 l 1,26,-1
 44 138 l 1,27,-1
 44 238 l 1,24,-1
44 358 m 1,28,-1
 146 358 l 1,29,-1
 146 258 l 1,30,-1
 44 258 l 1,31,-1
 44 358 l 1,28,-1
44 479 m 1,32,-1
 146 479 l 1,33,-1
 146 379 l 1,34,-1
 44 379 l 1,35,-1
 44 479 l 1,32,-1
44 598 m 1,36,-1
 146 598 l 1,37,-1
 146 498 l 1,38,-1
 44 498 l 1,39,-1
 44 598 l 1,36,-1
EndSplineSet
EndChar

StartChar: L
Encoding: 76 76 31
Width: 550
Flags: W
LayerCount: 2
Back
Fore
SplineSet
404 118 m 1,0,-1
 506 118 l 1,1,-1
 506 18 l 1,2,-1
 404 18 l 1,3,-1
 404 118 l 1,0,-1
284 119 m 1,4,-1
 386 119 l 1,5,-1
 386 19 l 1,6,-1
 284 19 l 1,7,-1
 284 119 l 1,4,-1
164 118 m 1,8,-1
 266 118 l 1,9,-1
 266 18 l 1,10,-1
 164 18 l 1,11,-1
 164 118 l 1,8,-1
44 119 m 1,12,-1
 146 119 l 1,13,-1
 146 19 l 1,14,-1
 44 19 l 1,15,-1
 44 119 l 1,12,-1
44 238 m 1,16,-1
 146 238 l 1,17,-1
 146 138 l 1,18,-1
 44 138 l 1,19,-1
 44 238 l 1,16,-1
44 358 m 1,20,-1
 146 358 l 1,21,-1
 146 258 l 1,22,-1
 44 258 l 1,23,-1
 44 358 l 1,20,-1
44 479 m 1,24,-1
 146 479 l 1,25,-1
 146 379 l 1,26,-1
 44 379 l 1,27,-1
 44 479 l 1,24,-1
44 598 m 1,28,-1
 146 598 l 1,29,-1
 146 498 l 1,30,-1
 44 498 l 1,31,-1
 44 598 l 1,28,-1
EndSplineSet
EndChar

StartChar: M
Encoding: 77 77 32
Width: 550
Flags: W
LayerCount: 2
Back
Fore
SplineSet
224 356 m 1,0,-1
 326 356 l 1,1,-1
 326 256 l 1,2,-1
 224 256 l 1,3,-1
 224 356 l 1,0,-1
404 118 m 1,4,-1
 506 118 l 1,5,-1
 506 18 l 1,6,-1
 404 18 l 1,7,-1
 404 118 l 1,4,-1
404 238 m 1,8,-1
 506 238 l 1,9,-1
 506 138 l 1,10,-1
 404 138 l 1,11,-1
 404 238 l 1,8,-1
404 358 m 1,12,-1
 506 358 l 1,13,-1
 506 258 l 1,14,-1
 404 258 l 1,15,-1
 404 358 l 1,12,-1
404 478 m 1,16,-1
 506 478 l 1,17,-1
 506 378 l 1,18,-1
 404 378 l 1,19,-1
 404 478 l 1,16,-1
404 598 m 1,20,-1
 506 598 l 1,21,-1
 506 498 l 1,22,-1
 404 498 l 1,23,-1
 404 598 l 1,20,-1
284 478 m 1,24,-1
 386 478 l 1,25,-1
 386 378 l 1,26,-1
 284 378 l 1,27,-1
 284 478 l 1,24,-1
164 478 m 1,28,-1
 266 478 l 1,29,-1
 266 378 l 1,30,-1
 164 378 l 1,31,-1
 164 478 l 1,28,-1
44 119 m 1,32,-1
 146 119 l 1,33,-1
 146 19 l 1,34,-1
 44 19 l 1,35,-1
 44 119 l 1,32,-1
44 238 m 1,36,-1
 146 238 l 1,37,-1
 146 138 l 1,38,-1
 44 138 l 1,39,-1
 44 238 l 1,36,-1
44 358 m 1,40,-1
 146 358 l 1,41,-1
 146 258 l 1,42,-1
 44 258 l 1,43,-1
 44 358 l 1,40,-1
44 479 m 1,44,-1
 146 479 l 1,45,-1
 146 379 l 1,46,-1
 44 379 l 1,47,-1
 44 479 l 1,44,-1
44 598 m 1,48,-1
 146 598 l 1,49,-1
 146 498 l 1,50,-1
 44 498 l 1,51,-1
 44 598 l 1,48,-1
EndSplineSet
EndChar

StartChar: N
Encoding: 78 78 33
Width: 550
Flags: W
LayerCount: 2
Back
Fore
SplineSet
404 118 m 1,0,-1
 506 118 l 1,1,-1
 506 18 l 1,2,-1
 404 18 l 1,3,-1
 404 118 l 1,0,-1
404 238 m 1,4,-1
 506 238 l 1,5,-1
 506 138 l 1,6,-1
 404 138 l 1,7,-1
 404 238 l 1,4,-1
404 358 m 1,8,-1
 506 358 l 1,9,-1
 506 258 l 1,10,-1
 404 258 l 1,11,-1
 404 358 l 1,8,-1
404 478 m 1,12,-1
 506 478 l 1,13,-1
 506 378 l 1,14,-1
 404 378 l 1,15,-1
 404 478 l 1,12,-1
404 598 m 1,16,-1
 506 598 l 1,17,-1
 506 498 l 1,18,-1
 404 498 l 1,19,-1
 404 598 l 1,16,-1
284 358 m 1,20,-1
 386 358 l 1,21,-1
 386 258 l 1,22,-1
 284 258 l 1,23,-1
 284 358 l 1,20,-1
284 479 m 1024,24,-1
164 478 m 1,25,-1
 266 478 l 1,26,-1
 266 378 l 1,27,-1
 164 378 l 1,28,-1
 164 478 l 1,25,-1
44 119 m 1,29,-1
 146 119 l 1,30,-1
 146 19 l 1,31,-1
 44 19 l 1,32,-1
 44 119 l 1,29,-1
44 238 m 1,33,-1
 146 238 l 1,34,-1
 146 138 l 1,35,-1
 44 138 l 1,36,-1
 44 238 l 1,33,-1
44 358 m 1,37,-1
 146 358 l 1,38,-1
 146 258 l 1,39,-1
 44 258 l 1,40,-1
 44 358 l 1,37,-1
44 479 m 1,41,-1
 146 479 l 1,42,-1
 146 379 l 1,43,-1
 44 379 l 1,44,-1
 44 479 l 1,41,-1
44 598 m 1,45,-1
 146 598 l 1,46,-1
 146 498 l 1,47,-1
 44 498 l 1,48,-1
 44 598 l 1,45,-1
EndSplineSet
EndChar

StartChar: O
Encoding: 79 79 34
Width: 550
Flags: W
LayerCount: 2
Back
Fore
SplineSet
404 238 m 1,0,-1
 506 238 l 1,1,-1
 506 138 l 1,2,-1
 404 138 l 1,3,-1
 404 238 l 1,0,-1
404 358 m 1,4,-1
 506 358 l 1,5,-1
 506 258 l 1,6,-1
 404 258 l 1,7,-1
 404 358 l 1,4,-1
404 478 m 1,8,-1
 506 478 l 1,9,-1
 506 378 l 1,10,-1
 404 378 l 1,11,-1
 404 478 l 1,8,-1
284 119 m 1,12,-1
 386 119 l 1,13,-1
 386 19 l 1,14,-1
 284 19 l 1,15,-1
 284 119 l 1,12,-1
284 598 m 1,16,-1
 386 598 l 1,17,-1
 386 498 l 1,18,-1
 284 498 l 1,19,-1
 284 598 l 1,16,-1
164 118 m 1,20,-1
 266 118 l 1,21,-1
 266 18 l 1,22,-1
 164 18 l 1,23,-1
 164 118 l 1,20,-1
164 598 m 1,24,-1
 266 598 l 1,25,-1
 266 498 l 1,26,-1
 164 498 l 1,27,-1
 164 598 l 1,24,-1
44 238 m 1,28,-1
 146 238 l 1,29,-1
 146 138 l 1,30,-1
 44 138 l 1,31,-1
 44 238 l 1,28,-1
44 358 m 1,32,-1
 146 358 l 1,33,-1
 146 258 l 1,34,-1
 44 258 l 1,35,-1
 44 358 l 1,32,-1
44 479 m 1,36,-1
 146 479 l 1,37,-1
 146 379 l 1,38,-1
 44 379 l 1,39,-1
 44 479 l 1,36,-1
EndSplineSet
EndChar

StartChar: P
Encoding: 80 80 35
Width: 550
Flags: W
LayerCount: 2
Back
Fore
SplineSet
404 358 m 1,0,-1
 506 358 l 1,1,-1
 506 258 l 1,2,-1
 404 258 l 1,3,-1
 404 358 l 1,0,-1
404 478 m 1,4,-1
 506 478 l 1,5,-1
 506 378 l 1,6,-1
 404 378 l 1,7,-1
 404 478 l 1,4,-1
404 598 m 1,8,-1
 506 598 l 1,9,-1
 506 498 l 1,10,-1
 404 498 l 1,11,-1
 404 598 l 1,8,-1
284 358 m 1,12,-1
 386 358 l 1,13,-1
 386 258 l 1,14,-1
 284 258 l 1,15,-1
 284 358 l 1,12,-1
284 598 m 1,16,-1
 386 598 l 1,17,-1
 386 498 l 1,18,-1
 284 498 l 1,19,-1
 284 598 l 1,16,-1
164 358 m 1,20,-1
 266 358 l 1,21,-1
 266 258 l 1,22,-1
 164 258 l 1,23,-1
 164 358 l 1,20,-1
164 598 m 1,24,-1
 266 598 l 1,25,-1
 266 498 l 1,26,-1
 164 498 l 1,27,-1
 164 598 l 1,24,-1
44 119 m 1,28,-1
 146 119 l 1,29,-1
 146 19 l 1,30,-1
 44 19 l 1,31,-1
 44 119 l 1,28,-1
44 238 m 1,32,-1
 146 238 l 1,33,-1
 146 138 l 1,34,-1
 44 138 l 1,35,-1
 44 238 l 1,32,-1
44 358 m 1,36,-1
 146 358 l 1,37,-1
 146 258 l 1,38,-1
 44 258 l 1,39,-1
 44 358 l 1,36,-1
44 479 m 1,40,-1
 146 479 l 1,41,-1
 146 379 l 1,42,-1
 44 379 l 1,43,-1
 44 479 l 1,40,-1
44 598 m 1,44,-1
 146 598 l 1,45,-1
 146 498 l 1,46,-1
 44 498 l 1,47,-1
 44 598 l 1,44,-1
EndSplineSet
EndChar

StartChar: Q
Encoding: 81 81 36
Width: 550
Flags: W
LayerCount: 2
Back
Fore
SplineSet
233 214 m 1,0,-1
 335 214 l 1,1,-1
 203 24 l 1,2,-1
 101 24 l 1,3,-1
 233 214 l 1,0,-1
404 238 m 1,4,-1
 506 238 l 1,5,-1
 506 138 l 1,6,-1
 404 138 l 1,7,-1
 404 238 l 1,4,-1
404 358 m 1,8,-1
 506 358 l 1,9,-1
 506 258 l 1,10,-1
 404 258 l 1,11,-1
 404 358 l 1,8,-1
404 478 m 1,12,-1
 506 478 l 1,13,-1
 506 378 l 1,14,-1
 404 378 l 1,15,-1
 404 478 l 1,12,-1
284 119 m 1,16,-1
 386 119 l 1,17,-1
 386 19 l 1,18,-1
 284 19 l 1,19,-1
 284 119 l 1,16,-1
284 598 m 1,20,-1
 386 598 l 1,21,-1
 386 498 l 1,22,-1
 284 498 l 1,23,-1
 284 598 l 1,20,-1
164 598 m 1,24,-1
 266 598 l 1,25,-1
 266 498 l 1,26,-1
 164 498 l 1,27,-1
 164 598 l 1,24,-1
44 238 m 1,28,-1
 146 238 l 1,29,-1
 146 138 l 1,30,-1
 44 138 l 1,31,-1
 44 238 l 1,28,-1
44 358 m 1,32,-1
 146 358 l 1,33,-1
 146 258 l 1,34,-1
 44 258 l 1,35,-1
 44 358 l 1,32,-1
44 479 m 1,36,-1
 146 479 l 1,37,-1
 146 379 l 1,38,-1
 44 379 l 1,39,-1
 44 479 l 1,36,-1
EndSplineSet
EndChar

StartChar: R
Encoding: 82 82 37
Width: 550
Flags: W
LayerCount: 2
Back
Fore
SplineSet
404 118 m 1,0,-1
 506 118 l 1,1,-1
 506 18 l 1,2,-1
 404 18 l 1,3,-1
 404 118 l 1,0,-1
404 238 m 1,4,-1
 506 238 l 1,5,-1
 506 138 l 1,6,-1
 404 138 l 1,7,-1
 404 238 l 1,4,-1
404 478 m 1,8,-1
 506 478 l 1,9,-1
 506 378 l 1,10,-1
 404 378 l 1,11,-1
 404 478 l 1,8,-1
284 358 m 1,12,-1
 386 358 l 1,13,-1
 386 258 l 1,14,-1
 284 258 l 1,15,-1
 284 358 l 1,12,-1
284 598 m 1,16,-1
 386 598 l 1,17,-1
 386 498 l 1,18,-1
 284 498 l 1,19,-1
 284 598 l 1,16,-1
164 358 m 1,20,-1
 266 358 l 1,21,-1
 266 258 l 1,22,-1
 164 258 l 1,23,-1
 164 358 l 1,20,-1
164 598 m 1,24,-1
 266 598 l 1,25,-1
 266 498 l 1,26,-1
 164 498 l 1,27,-1
 164 598 l 1,24,-1
44 119 m 1,28,-1
 146 119 l 1,29,-1
 146 19 l 1,30,-1
 44 19 l 1,31,-1
 44 119 l 1,28,-1
44 238 m 1,32,-1
 146 238 l 1,33,-1
 146 138 l 1,34,-1
 44 138 l 1,35,-1
 44 238 l 1,32,-1
44 358 m 1,36,-1
 146 358 l 1,37,-1
 146 258 l 1,38,-1
 44 258 l 1,39,-1
 44 358 l 1,36,-1
44 479 m 1,40,-1
 146 479 l 1,41,-1
 146 379 l 1,42,-1
 44 379 l 1,43,-1
 44 479 l 1,40,-1
44 598 m 1,44,-1
 146 598 l 1,45,-1
 146 498 l 1,46,-1
 44 498 l 1,47,-1
 44 598 l 1,44,-1
EndSplineSet
EndChar

StartChar: S
Encoding: 83 83 38
Width: 550
Flags: W
LayerCount: 2
Back
Fore
SplineSet
404 238 m 1,0,-1
 506 238 l 1,1,-1
 506 138 l 1,2,-1
 404 138 l 1,3,-1
 404 238 l 1,0,-1
404 358 m 1,4,-1
 506 358 l 1,5,-1
 506 258 l 1,6,-1
 404 258 l 1,7,-1
 404 358 l 1,4,-1
404 598 m 1,8,-1
 506 598 l 1,9,-1
 506 498 l 1,10,-1
 404 498 l 1,11,-1
 404 598 l 1,8,-1
284 119 m 1,12,-1
 386 119 l 1,13,-1
 386 19 l 1,14,-1
 284 19 l 1,15,-1
 284 119 l 1,12,-1
284 358 m 1,16,-1
 386 358 l 1,17,-1
 386 258 l 1,18,-1
 284 258 l 1,19,-1
 284 358 l 1,16,-1
284 598 m 1,20,-1
 386 598 l 1,21,-1
 386 498 l 1,22,-1
 284 498 l 1,23,-1
 284 598 l 1,20,-1
164 118 m 1,24,-1
 266 118 l 1,25,-1
 266 18 l 1,26,-1
 164 18 l 1,27,-1
 164 118 l 1,24,-1
164 358 m 1,28,-1
 266 358 l 1,29,-1
 266 258 l 1,30,-1
 164 258 l 1,31,-1
 164 358 l 1,28,-1
164 598 m 1,32,-1
 266 598 l 1,33,-1
 266 498 l 1,34,-1
 164 498 l 1,35,-1
 164 598 l 1,32,-1
44 119 m 1,36,-1
 146 119 l 1,37,-1
 146 19 l 1,38,-1
 44 19 l 1,39,-1
 44 119 l 1,36,-1
44 358 m 1,40,-1
 146 358 l 1,41,-1
 146 258 l 1,42,-1
 44 258 l 1,43,-1
 44 358 l 1,40,-1
44 479 m 1,44,-1
 146 479 l 1,45,-1
 146 379 l 1,46,-1
 44 379 l 1,47,-1
 44 479 l 1,44,-1
EndSplineSet
EndChar

StartChar: T
Encoding: 84 84 39
Width: 550
Flags: W
LayerCount: 2
Back
Fore
SplineSet
404 598 m 1,0,-1
 506 598 l 1,1,-1
 506 498 l 1,2,-1
 404 498 l 1,3,-1
 404 598 l 1,0,-1
225 119 m 1,4,-1
 327 119 l 1,5,-1
 327 19 l 1,6,-1
 225 19 l 1,7,-1
 225 119 l 1,4,-1
225 238 m 1,8,-1
 327 238 l 1,9,-1
 327 138 l 1,10,-1
 225 138 l 1,11,-1
 225 238 l 1,8,-1
225 358 m 1,12,-1
 327 358 l 1,13,-1
 327 258 l 1,14,-1
 225 258 l 1,15,-1
 225 358 l 1,12,-1
225 479 m 1,16,-1
 327 479 l 1,17,-1
 327 379 l 1,18,-1
 225 379 l 1,19,-1
 225 479 l 1,16,-1
284 598 m 1,20,-1
 386 598 l 1,21,-1
 386 498 l 1,22,-1
 284 498 l 1,23,-1
 284 598 l 1,20,-1
164 598 m 1,24,-1
 266 598 l 1,25,-1
 266 498 l 1,26,-1
 164 498 l 1,27,-1
 164 598 l 1,24,-1
44 598 m 1,28,-1
 146 598 l 1,29,-1
 146 498 l 1,30,-1
 44 498 l 1,31,-1
 44 598 l 1,28,-1
EndSplineSet
EndChar

StartChar: U
Encoding: 85 85 40
Width: 550
Flags: W
LayerCount: 2
Back
Fore
SplineSet
404 118 m 1,0,-1
 506 118 l 1,1,-1
 506 18 l 1,2,-1
 404 18 l 1,3,-1
 404 118 l 1,0,-1
404 238 m 1,4,-1
 506 238 l 1,5,-1
 506 138 l 1,6,-1
 404 138 l 1,7,-1
 404 238 l 1,4,-1
404 358 m 1,8,-1
 506 358 l 1,9,-1
 506 258 l 1,10,-1
 404 258 l 1,11,-1
 404 358 l 1,8,-1
404 478 m 1,12,-1
 506 478 l 1,13,-1
 506 378 l 1,14,-1
 404 378 l 1,15,-1
 404 478 l 1,12,-1
404 598 m 1,16,-1
 506 598 l 1,17,-1
 506 498 l 1,18,-1
 404 498 l 1,19,-1
 404 598 l 1,16,-1
284 119 m 1,20,-1
 386 119 l 1,21,-1
 386 19 l 1,22,-1
 284 19 l 1,23,-1
 284 119 l 1,20,-1
164 118 m 1,24,-1
 266 118 l 1,25,-1
 266 18 l 1,26,-1
 164 18 l 1,27,-1
 164 118 l 1,24,-1
44 119 m 1,28,-1
 146 119 l 1,29,-1
 146 19 l 1,30,-1
 44 19 l 1,31,-1
 44 119 l 1,28,-1
44 238 m 1,32,-1
 146 238 l 1,33,-1
 146 138 l 1,34,-1
 44 138 l 1,35,-1
 44 238 l 1,32,-1
44 358 m 1,36,-1
 146 358 l 1,37,-1
 146 258 l 1,38,-1
 44 258 l 1,39,-1
 44 358 l 1,36,-1
44 479 m 1,40,-1
 146 479 l 1,41,-1
 146 379 l 1,42,-1
 44 379 l 1,43,-1
 44 479 l 1,40,-1
44 598 m 1,44,-1
 146 598 l 1,45,-1
 146 498 l 1,46,-1
 44 498 l 1,47,-1
 44 598 l 1,44,-1
EndSplineSet
EndChar

StartChar: V
Encoding: 86 86 41
Width: 550
Flags: W
LayerCount: 2
Back
Fore
SplineSet
404 358 m 1,0,-1
 506 358 l 1,1,-1
 506 258 l 1,2,-1
 404 258 l 1,3,-1
 404 358 l 1,0,-1
404 478 m 1,4,-1
 506 478 l 1,5,-1
 506 378 l 1,6,-1
 404 378 l 1,7,-1
 404 478 l 1,4,-1
404 598 m 1,8,-1
 506 598 l 1,9,-1
 506 498 l 1,10,-1
 404 498 l 1,11,-1
 404 598 l 1,8,-1
223 119 m 1,12,-1
 325 119 l 1,13,-1
 325 19 l 1,14,-1
 223 19 l 1,15,-1
 223 119 l 1,12,-1
284 238 m 1,16,-1
 386 238 l 1,17,-1
 386 138 l 1,18,-1
 284 138 l 1,19,-1
 284 238 l 1,16,-1
164 238 m 1,20,-1
 266 238 l 1,21,-1
 266 138 l 1,22,-1
 164 138 l 1,23,-1
 164 238 l 1,20,-1
44 358 m 1,24,-1
 146 358 l 1,25,-1
 146 258 l 1,26,-1
 44 258 l 1,27,-1
 44 358 l 1,24,-1
44 479 m 1,28,-1
 146 479 l 1,29,-1
 146 379 l 1,30,-1
 44 379 l 1,31,-1
 44 479 l 1,28,-1
44 598 m 1,32,-1
 146 598 l 1,33,-1
 146 498 l 1,34,-1
 44 498 l 1,35,-1
 44 598 l 1,32,-1
EndSplineSet
EndChar

StartChar: W
Encoding: 87 87 42
Width: 550
Flags: W
LayerCount: 2
Back
Fore
SplineSet
224 356 m 1,0,-1
 326 356 l 1,1,-1
 326 256 l 1,2,-1
 224 256 l 1,3,-1
 224 356 l 1,0,-1
404 118 m 1,4,-1
 506 118 l 1,5,-1
 506 18 l 1,6,-1
 404 18 l 1,7,-1
 404 118 l 1,4,-1
404 238 m 1,8,-1
 506 238 l 1,9,-1
 506 138 l 1,10,-1
 404 138 l 1,11,-1
 404 238 l 1,8,-1
404 358 m 1,12,-1
 506 358 l 1,13,-1
 506 258 l 1,14,-1
 404 258 l 1,15,-1
 404 358 l 1,12,-1
404 478 m 1,16,-1
 506 478 l 1,17,-1
 506 378 l 1,18,-1
 404 378 l 1,19,-1
 404 478 l 1,16,-1
404 598 m 1,20,-1
 506 598 l 1,21,-1
 506 498 l 1,22,-1
 404 498 l 1,23,-1
 404 598 l 1,20,-1
284 238 m 1,24,-1
 386 238 l 1,25,-1
 386 138 l 1,26,-1
 284 138 l 1,27,-1
 284 238 l 1,24,-1
164 238 m 1,28,-1
 266 238 l 1,29,-1
 266 138 l 1,30,-1
 164 138 l 1,31,-1
 164 238 l 1,28,-1
44 119 m 1,32,-1
 146 119 l 1,33,-1
 146 19 l 1,34,-1
 44 19 l 1,35,-1
 44 119 l 1,32,-1
44 238 m 1,36,-1
 146 238 l 1,37,-1
 146 138 l 1,38,-1
 44 138 l 1,39,-1
 44 238 l 1,36,-1
44 358 m 1,40,-1
 146 358 l 1,41,-1
 146 258 l 1,42,-1
 44 258 l 1,43,-1
 44 358 l 1,40,-1
44 479 m 1,44,-1
 146 479 l 1,45,-1
 146 379 l 1,46,-1
 44 379 l 1,47,-1
 44 479 l 1,44,-1
44 598 m 1,48,-1
 146 598 l 1,49,-1
 146 498 l 1,50,-1
 44 498 l 1,51,-1
 44 598 l 1,48,-1
EndSplineSet
EndChar

StartChar: X
Encoding: 88 88 43
Width: 550
Flags: W
LayerCount: 2
Back
Fore
SplineSet
404 118 m 1,0,-1
 506 118 l 1,1,-1
 506 18 l 1,2,-1
 404 18 l 1,3,-1
 404 118 l 1,0,-1
404 598 m 1,4,-1
 506 598 l 1,5,-1
 506 498 l 1,6,-1
 404 498 l 1,7,-1
 404 598 l 1,4,-1
317 238 m 1,8,-1
 419 238 l 1,9,-1
 419 138 l 1,10,-1
 317 138 l 1,11,-1
 317 238 l 1,8,-1
225 358 m 1,12,-1
 327 358 l 1,13,-1
 327 258 l 1,14,-1
 225 258 l 1,15,-1
 225 358 l 1,12,-1
314 479 m 1,16,-1
 416 479 l 1,17,-1
 416 379 l 1,18,-1
 314 379 l 1,19,-1
 314 479 l 1,16,-1
135 238 m 1,20,-1
 237 238 l 1,21,-1
 237 138 l 1,22,-1
 135 138 l 1,23,-1
 135 238 l 1,20,-1
136 478 m 1,24,-1
 238 478 l 1,25,-1
 238 378 l 1,26,-1
 136 378 l 1,27,-1
 136 478 l 1,24,-1
44 119 m 1,28,-1
 146 119 l 1,29,-1
 146 19 l 1,30,-1
 44 19 l 1,31,-1
 44 119 l 1,28,-1
44 598 m 1,32,-1
 146 598 l 1,33,-1
 146 498 l 1,34,-1
 44 498 l 1,35,-1
 44 598 l 1,32,-1
EndSplineSet
EndChar

StartChar: Y
Encoding: 89 89 44
Width: 550
Flags: W
LayerCount: 2
Back
Fore
SplineSet
404 478 m 1,0,-1
 506 478 l 1,1,-1
 506 378 l 1,2,-1
 404 378 l 1,3,-1
 404 478 l 1,0,-1
404 598 m 1,4,-1
 506 598 l 1,5,-1
 506 498 l 1,6,-1
 404 498 l 1,7,-1
 404 598 l 1,4,-1
225 119 m 1,8,-1
 327 119 l 1,9,-1
 327 19 l 1,10,-1
 225 19 l 1,11,-1
 225 119 l 1,8,-1
225 238 m 1,12,-1
 327 238 l 1,13,-1
 327 138 l 1,14,-1
 225 138 l 1,15,-1
 225 238 l 1,12,-1
284 360 m 1,16,-1
 386 360 l 1,17,-1
 386 260 l 1,18,-1
 284 260 l 1,19,-1
 284 360 l 1,16,-1
164 359 m 1,20,-1
 266 359 l 1,21,-1
 266 259 l 1,22,-1
 164 259 l 1,23,-1
 164 359 l 1,20,-1
44 479 m 1,24,-1
 146 479 l 1,25,-1
 146 379 l 1,26,-1
 44 379 l 1,27,-1
 44 479 l 1,24,-1
44 598 m 1,28,-1
 146 598 l 1,29,-1
 146 498 l 1,30,-1
 44 498 l 1,31,-1
 44 598 l 1,28,-1
EndSplineSet
EndChar

StartChar: Z
Encoding: 90 90 45
Width: 550
Flags: W
LayerCount: 2
Back
Fore
SplineSet
404 118 m 1,0,-1
 506 118 l 1,1,-1
 506 18 l 1,2,-1
 404 18 l 1,3,-1
 404 118 l 1,0,-1
404 478 m 1,4,-1
 506 478 l 1,5,-1
 506 378 l 1,6,-1
 404 378 l 1,7,-1
 404 478 l 1,4,-1
404 598 m 1,8,-1
 506 598 l 1,9,-1
 506 498 l 1,10,-1
 404 498 l 1,11,-1
 404 598 l 1,8,-1
284 119 m 1,12,-1
 386 119 l 1,13,-1
 386 19 l 1,14,-1
 284 19 l 1,15,-1
 284 119 l 1,12,-1
284 358 m 1,16,-1
 386 358 l 1,17,-1
 386 258 l 1,18,-1
 284 258 l 1,19,-1
 284 358 l 1,16,-1
284 598 m 1,20,-1
 386 598 l 1,21,-1
 386 498 l 1,22,-1
 284 498 l 1,23,-1
 284 598 l 1,20,-1
164 118 m 1,24,-1
 266 118 l 1,25,-1
 266 18 l 1,26,-1
 164 18 l 1,27,-1
 164 118 l 1,24,-1
164 358 m 1,28,-1
 266 358 l 1,29,-1
 266 258 l 1,30,-1
 164 258 l 1,31,-1
 164 358 l 1,28,-1
164 598 m 1,32,-1
 266 598 l 1,33,-1
 266 498 l 1,34,-1
 164 498 l 1,35,-1
 164 598 l 1,32,-1
44 119 m 1,36,-1
 146 119 l 1,37,-1
 146 19 l 1,38,-1
 44 19 l 1,39,-1
 44 119 l 1,36,-1
44 238 m 1,40,-1
 146 238 l 1,41,-1
 146 138 l 1,42,-1
 44 138 l 1,43,-1
 44 238 l 1,40,-1
44 598 m 1,44,-1
 146 598 l 1,45,-1
 146 498 l 1,46,-1
 44 498 l 1,47,-1
 44 598 l 1,44,-1
EndSplineSet
EndChar

StartChar: a
Encoding: 97 97 46
Width: 550
Flags: W
LayerCount: 2
Back
Fore
SplineSet
404 118 m 1,0,-1
 506 118 l 1,1,-1
 506 18 l 1,2,-1
 404 18 l 1,3,-1
 404 118 l 1,0,-1
404 238 m 1,4,-1
 506 238 l 1,5,-1
 506 138 l 1,6,-1
 404 138 l 1,7,-1
 404 238 l 1,4,-1
404 358 m 1,8,-1
 506 358 l 1,9,-1
 506 258 l 1,10,-1
 404 258 l 1,11,-1
 404 358 l 1,8,-1
404 478 m 1,12,-1
 506 478 l 1,13,-1
 506 378 l 1,14,-1
 404 378 l 1,15,-1
 404 478 l 1,12,-1
404 598 m 1,16,-1
 506 598 l 1,17,-1
 506 498 l 1,18,-1
 404 498 l 1,19,-1
 404 598 l 1,16,-1
284 358 m 1,20,-1
 386 358 l 1,21,-1
 386 258 l 1,22,-1
 284 258 l 1,23,-1
 284 358 l 1,20,-1
284 598 m 1,24,-1
 386 598 l 1,25,-1
 386 498 l 1,26,-1
 284 498 l 1,27,-1
 284 598 l 1,24,-1
164 358 m 1,28,-1
 266 358 l 1,29,-1
 266 258 l 1,30,-1
 164 258 l 1,31,-1
 164 358 l 1,28,-1
164 598 m 1,32,-1
 266 598 l 1,33,-1
 266 498 l 1,34,-1
 164 498 l 1,35,-1
 164 598 l 1,32,-1
44 119 m 1,36,-1
 146 119 l 1,37,-1
 146 19 l 1,38,-1
 44 19 l 1,39,-1
 44 119 l 1,36,-1
44 238 m 1,40,-1
 146 238 l 1,41,-1
 146 138 l 1,42,-1
 44 138 l 1,43,-1
 44 238 l 1,40,-1
44 358 m 1,44,-1
 146 358 l 1,45,-1
 146 258 l 1,46,-1
 44 258 l 1,47,-1
 44 358 l 1,44,-1
44 479 m 1,48,-1
 146 479 l 1,49,-1
 146 379 l 1,50,-1
 44 379 l 1,51,-1
 44 479 l 1,48,-1
44 598 m 1,52,-1
 146 598 l 1,53,-1
 146 498 l 1,54,-1
 44 498 l 1,55,-1
 44 598 l 1,52,-1
EndSplineSet
EndChar

StartChar: b
Encoding: 98 98 47
Width: 550
Flags: W
LayerCount: 2
Back
Fore
SplineSet
404 118 m 1,0,-1
 506 118 l 1,1,-1
 506 18 l 1,2,-1
 404 18 l 1,3,-1
 404 118 l 1,0,-1
404 238 m 1,4,-1
 506 238 l 1,5,-1
 506 138 l 1,6,-1
 404 138 l 1,7,-1
 404 238 l 1,4,-1
404 478 m 1,8,-1
 506 478 l 1,9,-1
 506 378 l 1,10,-1
 404 378 l 1,11,-1
 404 478 l 1,8,-1
404 598 m 1,12,-1
 506 598 l 1,13,-1
 506 498 l 1,14,-1
 404 498 l 1,15,-1
 404 598 l 1,12,-1
284 119 m 1,16,-1
 386 119 l 1,17,-1
 386 19 l 1,18,-1
 284 19 l 1,19,-1
 284 119 l 1,16,-1
284 358 m 1,20,-1
 386 358 l 1,21,-1
 386 258 l 1,22,-1
 284 258 l 1,23,-1
 284 358 l 1,20,-1
284 598 m 1,24,-1
 386 598 l 1,25,-1
 386 498 l 1,26,-1
 284 498 l 1,27,-1
 284 598 l 1,24,-1
164 118 m 1,28,-1
 266 118 l 1,29,-1
 266 18 l 1,30,-1
 164 18 l 1,31,-1
 164 118 l 1,28,-1
164 358 m 1,32,-1
 266 358 l 1,33,-1
 266 258 l 1,34,-1
 164 258 l 1,35,-1
 164 358 l 1,32,-1
164 598 m 1,36,-1
 266 598 l 1,37,-1
 266 498 l 1,38,-1
 164 498 l 1,39,-1
 164 598 l 1,36,-1
44 119 m 1,40,-1
 146 119 l 1,41,-1
 146 19 l 1,42,-1
 44 19 l 1,43,-1
 44 119 l 1,40,-1
44 238 m 1,44,-1
 146 238 l 1,45,-1
 146 138 l 1,46,-1
 44 138 l 1,47,-1
 44 238 l 1,44,-1
44 358 m 1,48,-1
 146 358 l 1,49,-1
 146 258 l 1,50,-1
 44 258 l 1,51,-1
 44 358 l 1,48,-1
44 479 m 1,52,-1
 146 479 l 1,53,-1
 146 379 l 1,54,-1
 44 379 l 1,55,-1
 44 479 l 1,52,-1
44 598 m 1,56,-1
 146 598 l 1,57,-1
 146 498 l 1,58,-1
 44 498 l 1,59,-1
 44 598 l 1,56,-1
EndSplineSet
EndChar

StartChar: c
Encoding: 99 99 48
Width: 550
Flags: W
LayerCount: 2
Back
Fore
SplineSet
404 118 m 1,0,-1
 506 118 l 1,1,-1
 506 18 l 1,2,-1
 404 18 l 1,3,-1
 404 118 l 1,0,-1
404 598 m 1,4,-1
 506 598 l 1,5,-1
 506 498 l 1,6,-1
 404 498 l 1,7,-1
 404 598 l 1,4,-1
284 119 m 1,8,-1
 386 119 l 1,9,-1
 386 19 l 1,10,-1
 284 19 l 1,11,-1
 284 119 l 1,8,-1
284 598 m 1,12,-1
 386 598 l 1,13,-1
 386 498 l 1,14,-1
 284 498 l 1,15,-1
 284 598 l 1,12,-1
164 118 m 1,16,-1
 266 118 l 1,17,-1
 266 18 l 1,18,-1
 164 18 l 1,19,-1
 164 118 l 1,16,-1
164 598 m 1,20,-1
 266 598 l 1,21,-1
 266 498 l 1,22,-1
 164 498 l 1,23,-1
 164 598 l 1,20,-1
44 119 m 1,24,-1
 146 119 l 1,25,-1
 146 19 l 1,26,-1
 44 19 l 1,27,-1
 44 119 l 1,24,-1
44 238 m 1,28,-1
 146 238 l 1,29,-1
 146 138 l 1,30,-1
 44 138 l 1,31,-1
 44 238 l 1,28,-1
44 358 m 1,32,-1
 146 358 l 1,33,-1
 146 258 l 1,34,-1
 44 258 l 1,35,-1
 44 358 l 1,32,-1
44 479 m 1,36,-1
 146 479 l 1,37,-1
 146 379 l 1,38,-1
 44 379 l 1,39,-1
 44 479 l 1,36,-1
44 598 m 1,40,-1
 146 598 l 1,41,-1
 146 498 l 1,42,-1
 44 498 l 1,43,-1
 44 598 l 1,40,-1
EndSplineSet
EndChar

StartChar: d
Encoding: 100 100 49
Width: 550
Flags: W
LayerCount: 2
Back
Fore
SplineSet
404 238 m 1,0,-1
 506 238 l 1,1,-1
 506 138 l 1,2,-1
 404 138 l 1,3,-1
 404 238 l 1,0,-1
404 358 m 1,4,-1
 506 358 l 1,5,-1
 506 258 l 1,6,-1
 404 258 l 1,7,-1
 404 358 l 1,4,-1
404 478 m 1,8,-1
 506 478 l 1,9,-1
 506 378 l 1,10,-1
 404 378 l 1,11,-1
 404 478 l 1,8,-1
284 119 m 1,12,-1
 386 119 l 1,13,-1
 386 19 l 1,14,-1
 284 19 l 1,15,-1
 284 119 l 1,12,-1
284 598 m 1,16,-1
 386 598 l 1,17,-1
 386 498 l 1,18,-1
 284 498 l 1,19,-1
 284 598 l 1,16,-1
164 118 m 1,20,-1
 266 118 l 1,21,-1
 266 18 l 1,22,-1
 164 18 l 1,23,-1
 164 118 l 1,20,-1
164 598 m 1,24,-1
 266 598 l 1,25,-1
 266 498 l 1,26,-1
 164 498 l 1,27,-1
 164 598 l 1,24,-1
44 119 m 1,28,-1
 146 119 l 1,29,-1
 146 19 l 1,30,-1
 44 19 l 1,31,-1
 44 119 l 1,28,-1
44 238 m 1,32,-1
 146 238 l 1,33,-1
 146 138 l 1,34,-1
 44 138 l 1,35,-1
 44 238 l 1,32,-1
44 358 m 1,36,-1
 146 358 l 1,37,-1
 146 258 l 1,38,-1
 44 258 l 1,39,-1
 44 358 l 1,36,-1
44 479 m 1,40,-1
 146 479 l 1,41,-1
 146 379 l 1,42,-1
 44 379 l 1,43,-1
 44 479 l 1,40,-1
44 598 m 1,44,-1
 146 598 l 1,45,-1
 146 498 l 1,46,-1
 44 498 l 1,47,-1
 44 598 l 1,44,-1
EndSplineSet
EndChar

StartChar: e
Encoding: 101 101 50
Width: 550
Flags: W
LayerCount: 2
Back
Fore
SplineSet
404 118 m 1,0,-1
 506 118 l 1,1,-1
 506 18 l 1,2,-1
 404 18 l 1,3,-1
 404 118 l 1,0,-1
404 358 m 1,4,-1
 506 358 l 1,5,-1
 506 258 l 1,6,-1
 404 258 l 1,7,-1
 404 358 l 1,4,-1
404 598 m 1,8,-1
 506 598 l 1,9,-1
 506 498 l 1,10,-1
 404 498 l 1,11,-1
 404 598 l 1,8,-1
284 119 m 1,12,-1
 386 119 l 1,13,-1
 386 19 l 1,14,-1
 284 19 l 1,15,-1
 284 119 l 1,12,-1
284 358 m 1,16,-1
 386 358 l 1,17,-1
 386 258 l 1,18,-1
 284 258 l 1,19,-1
 284 358 l 1,16,-1
284 598 m 1,20,-1
 386 598 l 1,21,-1
 386 498 l 1,22,-1
 284 498 l 1,23,-1
 284 598 l 1,20,-1
164 118 m 1,24,-1
 266 118 l 1,25,-1
 266 18 l 1,26,-1
 164 18 l 1,27,-1
 164 118 l 1,24,-1
164 358 m 1,28,-1
 266 358 l 1,29,-1
 266 258 l 1,30,-1
 164 258 l 1,31,-1
 164 358 l 1,28,-1
164 598 m 1,32,-1
 266 598 l 1,33,-1
 266 498 l 1,34,-1
 164 498 l 1,35,-1
 164 598 l 1,32,-1
44 119 m 1,36,-1
 146 119 l 1,37,-1
 146 19 l 1,38,-1
 44 19 l 1,39,-1
 44 119 l 1,36,-1
44 238 m 1,40,-1
 146 238 l 1,41,-1
 146 138 l 1,42,-1
 44 138 l 1,43,-1
 44 238 l 1,40,-1
44 358 m 1,44,-1
 146 358 l 1,45,-1
 146 258 l 1,46,-1
 44 258 l 1,47,-1
 44 358 l 1,44,-1
44 479 m 1,48,-1
 146 479 l 1,49,-1
 146 379 l 1,50,-1
 44 379 l 1,51,-1
 44 479 l 1,48,-1
44 598 m 1,52,-1
 146 598 l 1,53,-1
 146 498 l 1,54,-1
 44 498 l 1,55,-1
 44 598 l 1,52,-1
EndSplineSet
EndChar

StartChar: f
Encoding: 102 102 51
Width: 550
Flags: W
LayerCount: 2
Back
Fore
SplineSet
404 598 m 1,0,-1
 506 598 l 1,1,-1
 506 498 l 1,2,-1
 404 498 l 1,3,-1
 404 598 l 1,0,-1
284 358 m 1,4,-1
 386 358 l 1,5,-1
 386 258 l 1,6,-1
 284 258 l 1,7,-1
 284 358 l 1,4,-1
284 598 m 1,8,-1
 386 598 l 1,9,-1
 386 498 l 1,10,-1
 284 498 l 1,11,-1
 284 598 l 1,8,-1
164 358 m 1,12,-1
 266 358 l 1,13,-1
 266 258 l 1,14,-1
 164 258 l 1,15,-1
 164 358 l 1,12,-1
164 598 m 1,16,-1
 266 598 l 1,17,-1
 266 498 l 1,18,-1
 164 498 l 1,19,-1
 164 598 l 1,16,-1
44 119 m 1,20,-1
 146 119 l 1,21,-1
 146 19 l 1,22,-1
 44 19 l 1,23,-1
 44 119 l 1,20,-1
44 238 m 1,24,-1
 146 238 l 1,25,-1
 146 138 l 1,26,-1
 44 138 l 1,27,-1
 44 238 l 1,24,-1
44 358 m 1,28,-1
 146 358 l 1,29,-1
 146 258 l 1,30,-1
 44 258 l 1,31,-1
 44 358 l 1,28,-1
44 479 m 1,32,-1
 146 479 l 1,33,-1
 146 379 l 1,34,-1
 44 379 l 1,35,-1
 44 479 l 1,32,-1
44 598 m 1,36,-1
 146 598 l 1,37,-1
 146 498 l 1,38,-1
 44 498 l 1,39,-1
 44 598 l 1,36,-1
EndSplineSet
EndChar

StartChar: g
Encoding: 103 103 52
Width: 550
Flags: W
LayerCount: 2
Back
Fore
SplineSet
404 118 m 1,0,-1
 506 118 l 1,1,-1
 506 18 l 1,2,-1
 404 18 l 1,3,-1
 404 118 l 1,0,-1
404 238 m 1,4,-1
 506 238 l 1,5,-1
 506 138 l 1,6,-1
 404 138 l 1,7,-1
 404 238 l 1,4,-1
404 358 m 1,8,-1
 506 358 l 1,9,-1
 506 258 l 1,10,-1
 404 258 l 1,11,-1
 404 358 l 1,8,-1
404 598 m 1,12,-1
 506 598 l 1,13,-1
 506 498 l 1,14,-1
 404 498 l 1,15,-1
 404 598 l 1,12,-1
284 119 m 1,16,-1
 386 119 l 1,17,-1
 386 19 l 1,18,-1
 284 19 l 1,19,-1
 284 119 l 1,16,-1
284 358 m 1,20,-1
 386 358 l 1,21,-1
 386 258 l 1,22,-1
 284 258 l 1,23,-1
 284 358 l 1,20,-1
284 598 m 1,24,-1
 386 598 l 1,25,-1
 386 498 l 1,26,-1
 284 498 l 1,27,-1
 284 598 l 1,24,-1
164 118 m 1,28,-1
 266 118 l 1,29,-1
 266 18 l 1,30,-1
 164 18 l 1,31,-1
 164 118 l 1,28,-1
164 598 m 1,32,-1
 266 598 l 1,33,-1
 266 498 l 1,34,-1
 164 498 l 1,35,-1
 164 598 l 1,32,-1
44 119 m 1,36,-1
 146 119 l 1,37,-1
 146 19 l 1,38,-1
 44 19 l 1,39,-1
 44 119 l 1,36,-1
44 238 m 1,40,-1
 146 238 l 1,41,-1
 146 138 l 1,42,-1
 44 138 l 1,43,-1
 44 238 l 1,40,-1
44 358 m 1,44,-1
 146 358 l 1,45,-1
 146 258 l 1,46,-1
 44 258 l 1,47,-1
 44 358 l 1,44,-1
44 479 m 1,48,-1
 146 479 l 1,49,-1
 146 379 l 1,50,-1
 44 379 l 1,51,-1
 44 479 l 1,48,-1
44 598 m 1,52,-1
 146 598 l 1,53,-1
 146 498 l 1,54,-1
 44 498 l 1,55,-1
 44 598 l 1,52,-1
EndSplineSet
EndChar

StartChar: h
Encoding: 104 104 53
Width: 550
Flags: W
LayerCount: 2
Back
Fore
SplineSet
404 118 m 1,0,-1
 506 118 l 1,1,-1
 506 18 l 1,2,-1
 404 18 l 1,3,-1
 404 118 l 1,0,-1
404 238 m 1,4,-1
 506 238 l 1,5,-1
 506 138 l 1,6,-1
 404 138 l 1,7,-1
 404 238 l 1,4,-1
404 358 m 1,8,-1
 506 358 l 1,9,-1
 506 258 l 1,10,-1
 404 258 l 1,11,-1
 404 358 l 1,8,-1
404 478 m 1,12,-1
 506 478 l 1,13,-1
 506 378 l 1,14,-1
 404 378 l 1,15,-1
 404 478 l 1,12,-1
404 598 m 1,16,-1
 506 598 l 1,17,-1
 506 498 l 1,18,-1
 404 498 l 1,19,-1
 404 598 l 1,16,-1
284 358 m 1,20,-1
 386 358 l 1,21,-1
 386 258 l 1,22,-1
 284 258 l 1,23,-1
 284 358 l 1,20,-1
164 358 m 1,24,-1
 266 358 l 1,25,-1
 266 258 l 1,26,-1
 164 258 l 1,27,-1
 164 358 l 1,24,-1
44 119 m 1,28,-1
 146 119 l 1,29,-1
 146 19 l 1,30,-1
 44 19 l 1,31,-1
 44 119 l 1,28,-1
44 238 m 1,32,-1
 146 238 l 1,33,-1
 146 138 l 1,34,-1
 44 138 l 1,35,-1
 44 238 l 1,32,-1
44 358 m 1,36,-1
 146 358 l 1,37,-1
 146 258 l 1,38,-1
 44 258 l 1,39,-1
 44 358 l 1,36,-1
44 479 m 1,40,-1
 146 479 l 1,41,-1
 146 379 l 1,42,-1
 44 379 l 1,43,-1
 44 479 l 1,40,-1
44 598 m 1,44,-1
 146 598 l 1,45,-1
 146 498 l 1,46,-1
 44 498 l 1,47,-1
 44 598 l 1,44,-1
EndSplineSet
EndChar

StartChar: i
Encoding: 105 105 54
Width: 550
Flags: W
LayerCount: 2
Back
Fore
SplineSet
224 119 m 1,0,-1
 326 119 l 1,1,-1
 326 19 l 1,2,-1
 224 19 l 1,3,-1
 224 119 l 1,0,-1
224 238 m 1,4,-1
 326 238 l 1,5,-1
 326 138 l 1,6,-1
 224 138 l 1,7,-1
 224 238 l 1,4,-1
224 358 m 1,8,-1
 326 358 l 1,9,-1
 326 258 l 1,10,-1
 224 258 l 1,11,-1
 224 358 l 1,8,-1
224 479 m 1,12,-1
 326 479 l 1,13,-1
 326 379 l 1,14,-1
 224 379 l 1,15,-1
 224 479 l 1,12,-1
224 598 m 1,16,-1
 326 598 l 1,17,-1
 326 498 l 1,18,-1
 224 498 l 1,19,-1
 224 598 l 1,16,-1
EndSplineSet
EndChar

StartChar: j
Encoding: 106 106 55
Width: 550
Flags: W
LayerCount: 2
Back
Fore
SplineSet
404 238 m 1,0,-1
 506 238 l 1,1,-1
 506 138 l 1,2,-1
 404 138 l 1,3,-1
 404 238 l 1,0,-1
404 358 m 1,4,-1
 506 358 l 1,5,-1
 506 258 l 1,6,-1
 404 258 l 1,7,-1
 404 358 l 1,4,-1
404 478 m 1,8,-1
 506 478 l 1,9,-1
 506 378 l 1,10,-1
 404 378 l 1,11,-1
 404 478 l 1,8,-1
404 598 m 1,12,-1
 506 598 l 1,13,-1
 506 498 l 1,14,-1
 404 498 l 1,15,-1
 404 598 l 1,12,-1
284 119 m 1,16,-1
 386 119 l 1,17,-1
 386 19 l 1,18,-1
 284 19 l 1,19,-1
 284 119 l 1,16,-1
164 118 m 1,20,-1
 266 118 l 1,21,-1
 266 18 l 1,22,-1
 164 18 l 1,23,-1
 164 118 l 1,20,-1
44 119 m 1,24,-1
 146 119 l 1,25,-1
 146 19 l 1,26,-1
 44 19 l 1,27,-1
 44 119 l 1,24,-1
EndSplineSet
EndChar

StartChar: k
Encoding: 107 107 56
Width: 550
Flags: W
LayerCount: 2
Back
Fore
SplineSet
404 118 m 1,0,-1
 506 118 l 1,1,-1
 506 18 l 1,2,-1
 404 18 l 1,3,-1
 404 118 l 1,0,-1
404 598 m 1,4,-1
 506 598 l 1,5,-1
 506 498 l 1,6,-1
 404 498 l 1,7,-1
 404 598 l 1,4,-1
284 238 m 1,8,-1
 386 238 l 1,9,-1
 386 138 l 1,10,-1
 284 138 l 1,11,-1
 284 238 l 1,8,-1
284 479 m 1,12,-1
 386 479 l 1,13,-1
 386 379 l 1,14,-1
 284 379 l 1,15,-1
 284 479 l 1,12,-1
164 358 m 1,16,-1
 266 358 l 1,17,-1
 266 258 l 1,18,-1
 164 258 l 1,19,-1
 164 358 l 1,16,-1
44 119 m 1,20,-1
 146 119 l 1,21,-1
 146 19 l 1,22,-1
 44 19 l 1,23,-1
 44 119 l 1,20,-1
44 238 m 1,24,-1
 146 238 l 1,25,-1
 146 138 l 1,26,-1
 44 138 l 1,27,-1
 44 238 l 1,24,-1
44 358 m 1,28,-1
 146 358 l 1,29,-1
 146 258 l 1,30,-1
 44 258 l 1,31,-1
 44 358 l 1,28,-1
44 479 m 1,32,-1
 146 479 l 1,33,-1
 146 379 l 1,34,-1
 44 379 l 1,35,-1
 44 479 l 1,32,-1
44 598 m 1,36,-1
 146 598 l 1,37,-1
 146 498 l 1,38,-1
 44 498 l 1,39,-1
 44 598 l 1,36,-1
EndSplineSet
EndChar

StartChar: l
Encoding: 108 108 57
Width: 550
Flags: W
LayerCount: 2
Back
Fore
SplineSet
404 118 m 1,0,-1
 506 118 l 1,1,-1
 506 18 l 1,2,-1
 404 18 l 1,3,-1
 404 118 l 1,0,-1
284 119 m 1,4,-1
 386 119 l 1,5,-1
 386 19 l 1,6,-1
 284 19 l 1,7,-1
 284 119 l 1,4,-1
164 118 m 1,8,-1
 266 118 l 1,9,-1
 266 18 l 1,10,-1
 164 18 l 1,11,-1
 164 118 l 1,8,-1
44 119 m 1,12,-1
 146 119 l 1,13,-1
 146 19 l 1,14,-1
 44 19 l 1,15,-1
 44 119 l 1,12,-1
44 238 m 1,16,-1
 146 238 l 1,17,-1
 146 138 l 1,18,-1
 44 138 l 1,19,-1
 44 238 l 1,16,-1
44 358 m 1,20,-1
 146 358 l 1,21,-1
 146 258 l 1,22,-1
 44 258 l 1,23,-1
 44 358 l 1,20,-1
44 479 m 1,24,-1
 146 479 l 1,25,-1
 146 379 l 1,26,-1
 44 379 l 1,27,-1
 44 479 l 1,24,-1
44 598 m 1,28,-1
 146 598 l 1,29,-1
 146 498 l 1,30,-1
 44 498 l 1,31,-1
 44 598 l 1,28,-1
EndSplineSet
EndChar

StartChar: m
Encoding: 109 109 58
Width: 550
Flags: W
LayerCount: 2
Back
Fore
SplineSet
224 356 m 1,0,-1
 326 356 l 1,1,-1
 326 256 l 1,2,-1
 224 256 l 1,3,-1
 224 356 l 1,0,-1
404 118 m 1,4,-1
 506 118 l 1,5,-1
 506 18 l 1,6,-1
 404 18 l 1,7,-1
 404 118 l 1,4,-1
404 238 m 1,8,-1
 506 238 l 1,9,-1
 506 138 l 1,10,-1
 404 138 l 1,11,-1
 404 238 l 1,8,-1
404 358 m 1,12,-1
 506 358 l 1,13,-1
 506 258 l 1,14,-1
 404 258 l 1,15,-1
 404 358 l 1,12,-1
404 478 m 1,16,-1
 506 478 l 1,17,-1
 506 378 l 1,18,-1
 404 378 l 1,19,-1
 404 478 l 1,16,-1
404 598 m 1,20,-1
 506 598 l 1,21,-1
 506 498 l 1,22,-1
 404 498 l 1,23,-1
 404 598 l 1,20,-1
284 478 m 1,24,-1
 386 478 l 1,25,-1
 386 378 l 1,26,-1
 284 378 l 1,27,-1
 284 478 l 1,24,-1
164 478 m 1,28,-1
 266 478 l 1,29,-1
 266 378 l 1,30,-1
 164 378 l 1,31,-1
 164 478 l 1,28,-1
44 119 m 1,32,-1
 146 119 l 1,33,-1
 146 19 l 1,34,-1
 44 19 l 1,35,-1
 44 119 l 1,32,-1
44 238 m 1,36,-1
 146 238 l 1,37,-1
 146 138 l 1,38,-1
 44 138 l 1,39,-1
 44 238 l 1,36,-1
44 358 m 1,40,-1
 146 358 l 1,41,-1
 146 258 l 1,42,-1
 44 258 l 1,43,-1
 44 358 l 1,40,-1
44 479 m 1,44,-1
 146 479 l 1,45,-1
 146 379 l 1,46,-1
 44 379 l 1,47,-1
 44 479 l 1,44,-1
44 598 m 1,48,-1
 146 598 l 1,49,-1
 146 498 l 1,50,-1
 44 498 l 1,51,-1
 44 598 l 1,48,-1
EndSplineSet
EndChar

StartChar: n
Encoding: 110 110 59
Width: 550
Flags: W
LayerCount: 2
Back
Fore
SplineSet
404 118 m 1,0,-1
 506 118 l 1,1,-1
 506 18 l 1,2,-1
 404 18 l 1,3,-1
 404 118 l 1,0,-1
404 238 m 1,4,-1
 506 238 l 1,5,-1
 506 138 l 1,6,-1
 404 138 l 1,7,-1
 404 238 l 1,4,-1
404 358 m 1,8,-1
 506 358 l 1,9,-1
 506 258 l 1,10,-1
 404 258 l 1,11,-1
 404 358 l 1,8,-1
404 478 m 1,12,-1
 506 478 l 1,13,-1
 506 378 l 1,14,-1
 404 378 l 1,15,-1
 404 478 l 1,12,-1
404 598 m 1,16,-1
 506 598 l 1,17,-1
 506 498 l 1,18,-1
 404 498 l 1,19,-1
 404 598 l 1,16,-1
284 358 m 1,20,-1
 386 358 l 1,21,-1
 386 258 l 1,22,-1
 284 258 l 1,23,-1
 284 358 l 1,20,-1
284 479 m 1024,24,-1
164 478 m 1,25,-1
 266 478 l 1,26,-1
 266 378 l 1,27,-1
 164 378 l 1,28,-1
 164 478 l 1,25,-1
44 119 m 1,29,-1
 146 119 l 1,30,-1
 146 19 l 1,31,-1
 44 19 l 1,32,-1
 44 119 l 1,29,-1
44 238 m 1,33,-1
 146 238 l 1,34,-1
 146 138 l 1,35,-1
 44 138 l 1,36,-1
 44 238 l 1,33,-1
44 358 m 1,37,-1
 146 358 l 1,38,-1
 146 258 l 1,39,-1
 44 258 l 1,40,-1
 44 358 l 1,37,-1
44 479 m 1,41,-1
 146 479 l 1,42,-1
 146 379 l 1,43,-1
 44 379 l 1,44,-1
 44 479 l 1,41,-1
44 598 m 1,45,-1
 146 598 l 1,46,-1
 146 498 l 1,47,-1
 44 498 l 1,48,-1
 44 598 l 1,45,-1
EndSplineSet
EndChar

StartChar: o
Encoding: 111 111 60
Width: 550
Flags: W
LayerCount: 2
Back
Fore
SplineSet
404 238 m 1,0,-1
 506 238 l 1,1,-1
 506 138 l 1,2,-1
 404 138 l 1,3,-1
 404 238 l 1,0,-1
404 358 m 1,4,-1
 506 358 l 1,5,-1
 506 258 l 1,6,-1
 404 258 l 1,7,-1
 404 358 l 1,4,-1
404 478 m 1,8,-1
 506 478 l 1,9,-1
 506 378 l 1,10,-1
 404 378 l 1,11,-1
 404 478 l 1,8,-1
284 119 m 1,12,-1
 386 119 l 1,13,-1
 386 19 l 1,14,-1
 284 19 l 1,15,-1
 284 119 l 1,12,-1
284 598 m 1,16,-1
 386 598 l 1,17,-1
 386 498 l 1,18,-1
 284 498 l 1,19,-1
 284 598 l 1,16,-1
164 118 m 1,20,-1
 266 118 l 1,21,-1
 266 18 l 1,22,-1
 164 18 l 1,23,-1
 164 118 l 1,20,-1
164 598 m 1,24,-1
 266 598 l 1,25,-1
 266 498 l 1,26,-1
 164 498 l 1,27,-1
 164 598 l 1,24,-1
44 238 m 1,28,-1
 146 238 l 1,29,-1
 146 138 l 1,30,-1
 44 138 l 1,31,-1
 44 238 l 1,28,-1
44 358 m 1,32,-1
 146 358 l 1,33,-1
 146 258 l 1,34,-1
 44 258 l 1,35,-1
 44 358 l 1,32,-1
44 479 m 1,36,-1
 146 479 l 1,37,-1
 146 379 l 1,38,-1
 44 379 l 1,39,-1
 44 479 l 1,36,-1
EndSplineSet
EndChar

StartChar: p
Encoding: 112 112 61
Width: 550
Flags: W
LayerCount: 2
Back
Fore
SplineSet
404 358 m 1,0,-1
 506 358 l 1,1,-1
 506 258 l 1,2,-1
 404 258 l 1,3,-1
 404 358 l 1,0,-1
404 478 m 1,4,-1
 506 478 l 1,5,-1
 506 378 l 1,6,-1
 404 378 l 1,7,-1
 404 478 l 1,4,-1
404 598 m 1,8,-1
 506 598 l 1,9,-1
 506 498 l 1,10,-1
 404 498 l 1,11,-1
 404 598 l 1,8,-1
284 358 m 1,12,-1
 386 358 l 1,13,-1
 386 258 l 1,14,-1
 284 258 l 1,15,-1
 284 358 l 1,12,-1
284 598 m 1,16,-1
 386 598 l 1,17,-1
 386 498 l 1,18,-1
 284 498 l 1,19,-1
 284 598 l 1,16,-1
164 358 m 1,20,-1
 266 358 l 1,21,-1
 266 258 l 1,22,-1
 164 258 l 1,23,-1
 164 358 l 1,20,-1
164 598 m 1,24,-1
 266 598 l 1,25,-1
 266 498 l 1,26,-1
 164 498 l 1,27,-1
 164 598 l 1,24,-1
44 119 m 1,28,-1
 146 119 l 1,29,-1
 146 19 l 1,30,-1
 44 19 l 1,31,-1
 44 119 l 1,28,-1
44 238 m 1,32,-1
 146 238 l 1,33,-1
 146 138 l 1,34,-1
 44 138 l 1,35,-1
 44 238 l 1,32,-1
44 358 m 1,36,-1
 146 358 l 1,37,-1
 146 258 l 1,38,-1
 44 258 l 1,39,-1
 44 358 l 1,36,-1
44 479 m 1,40,-1
 146 479 l 1,41,-1
 146 379 l 1,42,-1
 44 379 l 1,43,-1
 44 479 l 1,40,-1
44 598 m 1,44,-1
 146 598 l 1,45,-1
 146 498 l 1,46,-1
 44 498 l 1,47,-1
 44 598 l 1,44,-1
EndSplineSet
EndChar

StartChar: q
Encoding: 113 113 62
Width: 550
Flags: W
LayerCount: 2
Back
Fore
SplineSet
233 214 m 1,0,-1
 335 214 l 1,1,-1
 203 24 l 1,2,-1
 101 24 l 1,3,-1
 233 214 l 1,0,-1
404 238 m 1,4,-1
 506 238 l 1,5,-1
 506 138 l 1,6,-1
 404 138 l 1,7,-1
 404 238 l 1,4,-1
404 358 m 1,8,-1
 506 358 l 1,9,-1
 506 258 l 1,10,-1
 404 258 l 1,11,-1
 404 358 l 1,8,-1
404 478 m 1,12,-1
 506 478 l 1,13,-1
 506 378 l 1,14,-1
 404 378 l 1,15,-1
 404 478 l 1,12,-1
284 119 m 1,16,-1
 386 119 l 1,17,-1
 386 19 l 1,18,-1
 284 19 l 1,19,-1
 284 119 l 1,16,-1
284 598 m 1,20,-1
 386 598 l 1,21,-1
 386 498 l 1,22,-1
 284 498 l 1,23,-1
 284 598 l 1,20,-1
164 598 m 1,24,-1
 266 598 l 1,25,-1
 266 498 l 1,26,-1
 164 498 l 1,27,-1
 164 598 l 1,24,-1
44 238 m 1,28,-1
 146 238 l 1,29,-1
 146 138 l 1,30,-1
 44 138 l 1,31,-1
 44 238 l 1,28,-1
44 358 m 1,32,-1
 146 358 l 1,33,-1
 146 258 l 1,34,-1
 44 258 l 1,35,-1
 44 358 l 1,32,-1
44 479 m 1,36,-1
 146 479 l 1,37,-1
 146 379 l 1,38,-1
 44 379 l 1,39,-1
 44 479 l 1,36,-1
EndSplineSet
EndChar

StartChar: r
Encoding: 114 114 63
Width: 550
Flags: W
LayerCount: 2
Back
Fore
SplineSet
404 118 m 1,0,-1
 506 118 l 1,1,-1
 506 18 l 1,2,-1
 404 18 l 1,3,-1
 404 118 l 1,0,-1
404 238 m 1,4,-1
 506 238 l 1,5,-1
 506 138 l 1,6,-1
 404 138 l 1,7,-1
 404 238 l 1,4,-1
404 478 m 1,8,-1
 506 478 l 1,9,-1
 506 378 l 1,10,-1
 404 378 l 1,11,-1
 404 478 l 1,8,-1
284 358 m 1,12,-1
 386 358 l 1,13,-1
 386 258 l 1,14,-1
 284 258 l 1,15,-1
 284 358 l 1,12,-1
284 598 m 1,16,-1
 386 598 l 1,17,-1
 386 498 l 1,18,-1
 284 498 l 1,19,-1
 284 598 l 1,16,-1
164 358 m 1,20,-1
 266 358 l 1,21,-1
 266 258 l 1,22,-1
 164 258 l 1,23,-1
 164 358 l 1,20,-1
164 598 m 1,24,-1
 266 598 l 1,25,-1
 266 498 l 1,26,-1
 164 498 l 1,27,-1
 164 598 l 1,24,-1
44 119 m 1,28,-1
 146 119 l 1,29,-1
 146 19 l 1,30,-1
 44 19 l 1,31,-1
 44 119 l 1,28,-1
44 238 m 1,32,-1
 146 238 l 1,33,-1
 146 138 l 1,34,-1
 44 138 l 1,35,-1
 44 238 l 1,32,-1
44 358 m 1,36,-1
 146 358 l 1,37,-1
 146 258 l 1,38,-1
 44 258 l 1,39,-1
 44 358 l 1,36,-1
44 479 m 1,40,-1
 146 479 l 1,41,-1
 146 379 l 1,42,-1
 44 379 l 1,43,-1
 44 479 l 1,40,-1
44 598 m 1,44,-1
 146 598 l 1,45,-1
 146 498 l 1,46,-1
 44 498 l 1,47,-1
 44 598 l 1,44,-1
EndSplineSet
EndChar

StartChar: s
Encoding: 115 115 64
Width: 550
Flags: W
LayerCount: 2
Back
Fore
SplineSet
404 238 m 1,0,-1
 506 238 l 1,1,-1
 506 138 l 1,2,-1
 404 138 l 1,3,-1
 404 238 l 1,0,-1
404 358 m 1,4,-1
 506 358 l 1,5,-1
 506 258 l 1,6,-1
 404 258 l 1,7,-1
 404 358 l 1,4,-1
404 598 m 1,8,-1
 506 598 l 1,9,-1
 506 498 l 1,10,-1
 404 498 l 1,11,-1
 404 598 l 1,8,-1
284 119 m 1,12,-1
 386 119 l 1,13,-1
 386 19 l 1,14,-1
 284 19 l 1,15,-1
 284 119 l 1,12,-1
284 358 m 1,16,-1
 386 358 l 1,17,-1
 386 258 l 1,18,-1
 284 258 l 1,19,-1
 284 358 l 1,16,-1
284 598 m 1,20,-1
 386 598 l 1,21,-1
 386 498 l 1,22,-1
 284 498 l 1,23,-1
 284 598 l 1,20,-1
164 118 m 1,24,-1
 266 118 l 1,25,-1
 266 18 l 1,26,-1
 164 18 l 1,27,-1
 164 118 l 1,24,-1
164 358 m 1,28,-1
 266 358 l 1,29,-1
 266 258 l 1,30,-1
 164 258 l 1,31,-1
 164 358 l 1,28,-1
164 598 m 1,32,-1
 266 598 l 1,33,-1
 266 498 l 1,34,-1
 164 498 l 1,35,-1
 164 598 l 1,32,-1
44 119 m 1,36,-1
 146 119 l 1,37,-1
 146 19 l 1,38,-1
 44 19 l 1,39,-1
 44 119 l 1,36,-1
44 358 m 1,40,-1
 146 358 l 1,41,-1
 146 258 l 1,42,-1
 44 258 l 1,43,-1
 44 358 l 1,40,-1
44 479 m 1,44,-1
 146 479 l 1,45,-1
 146 379 l 1,46,-1
 44 379 l 1,47,-1
 44 479 l 1,44,-1
EndSplineSet
EndChar

StartChar: t
Encoding: 116 116 65
Width: 550
Flags: W
LayerCount: 2
Back
Fore
SplineSet
404 598 m 1,0,-1
 506 598 l 1,1,-1
 506 498 l 1,2,-1
 404 498 l 1,3,-1
 404 598 l 1,0,-1
225 119 m 1,4,-1
 327 119 l 1,5,-1
 327 19 l 1,6,-1
 225 19 l 1,7,-1
 225 119 l 1,4,-1
225 238 m 1,8,-1
 327 238 l 1,9,-1
 327 138 l 1,10,-1
 225 138 l 1,11,-1
 225 238 l 1,8,-1
225 358 m 1,12,-1
 327 358 l 1,13,-1
 327 258 l 1,14,-1
 225 258 l 1,15,-1
 225 358 l 1,12,-1
225 479 m 1,16,-1
 327 479 l 1,17,-1
 327 379 l 1,18,-1
 225 379 l 1,19,-1
 225 479 l 1,16,-1
284 598 m 1,20,-1
 386 598 l 1,21,-1
 386 498 l 1,22,-1
 284 498 l 1,23,-1
 284 598 l 1,20,-1
164 598 m 1,24,-1
 266 598 l 1,25,-1
 266 498 l 1,26,-1
 164 498 l 1,27,-1
 164 598 l 1,24,-1
44 598 m 1,28,-1
 146 598 l 1,29,-1
 146 498 l 1,30,-1
 44 498 l 1,31,-1
 44 598 l 1,28,-1
EndSplineSet
EndChar

StartChar: u
Encoding: 117 117 66
Width: 550
Flags: W
LayerCount: 2
Back
Fore
SplineSet
404 118 m 1,0,-1
 506 118 l 1,1,-1
 506 18 l 1,2,-1
 404 18 l 1,3,-1
 404 118 l 1,0,-1
404 238 m 1,4,-1
 506 238 l 1,5,-1
 506 138 l 1,6,-1
 404 138 l 1,7,-1
 404 238 l 1,4,-1
404 358 m 1,8,-1
 506 358 l 1,9,-1
 506 258 l 1,10,-1
 404 258 l 1,11,-1
 404 358 l 1,8,-1
404 478 m 1,12,-1
 506 478 l 1,13,-1
 506 378 l 1,14,-1
 404 378 l 1,15,-1
 404 478 l 1,12,-1
404 598 m 1,16,-1
 506 598 l 1,17,-1
 506 498 l 1,18,-1
 404 498 l 1,19,-1
 404 598 l 1,16,-1
284 119 m 1,20,-1
 386 119 l 1,21,-1
 386 19 l 1,22,-1
 284 19 l 1,23,-1
 284 119 l 1,20,-1
164 118 m 1,24,-1
 266 118 l 1,25,-1
 266 18 l 1,26,-1
 164 18 l 1,27,-1
 164 118 l 1,24,-1
44 119 m 1,28,-1
 146 119 l 1,29,-1
 146 19 l 1,30,-1
 44 19 l 1,31,-1
 44 119 l 1,28,-1
44 238 m 1,32,-1
 146 238 l 1,33,-1
 146 138 l 1,34,-1
 44 138 l 1,35,-1
 44 238 l 1,32,-1
44 358 m 1,36,-1
 146 358 l 1,37,-1
 146 258 l 1,38,-1
 44 258 l 1,39,-1
 44 358 l 1,36,-1
44 479 m 1,40,-1
 146 479 l 1,41,-1
 146 379 l 1,42,-1
 44 379 l 1,43,-1
 44 479 l 1,40,-1
44 598 m 1,44,-1
 146 598 l 1,45,-1
 146 498 l 1,46,-1
 44 498 l 1,47,-1
 44 598 l 1,44,-1
EndSplineSet
EndChar

StartChar: v
Encoding: 118 118 67
Width: 550
Flags: W
LayerCount: 2
Back
Fore
SplineSet
404 358 m 1,0,-1
 506 358 l 1,1,-1
 506 258 l 1,2,-1
 404 258 l 1,3,-1
 404 358 l 1,0,-1
404 478 m 1,4,-1
 506 478 l 1,5,-1
 506 378 l 1,6,-1
 404 378 l 1,7,-1
 404 478 l 1,4,-1
404 598 m 1,8,-1
 506 598 l 1,9,-1
 506 498 l 1,10,-1
 404 498 l 1,11,-1
 404 598 l 1,8,-1
223 119 m 1,12,-1
 325 119 l 1,13,-1
 325 19 l 1,14,-1
 223 19 l 1,15,-1
 223 119 l 1,12,-1
284 238 m 1,16,-1
 386 238 l 1,17,-1
 386 138 l 1,18,-1
 284 138 l 1,19,-1
 284 238 l 1,16,-1
164 238 m 1,20,-1
 266 238 l 1,21,-1
 266 138 l 1,22,-1
 164 138 l 1,23,-1
 164 238 l 1,20,-1
44 358 m 1,24,-1
 146 358 l 1,25,-1
 146 258 l 1,26,-1
 44 258 l 1,27,-1
 44 358 l 1,24,-1
44 479 m 1,28,-1
 146 479 l 1,29,-1
 146 379 l 1,30,-1
 44 379 l 1,31,-1
 44 479 l 1,28,-1
44 598 m 1,32,-1
 146 598 l 1,33,-1
 146 498 l 1,34,-1
 44 498 l 1,35,-1
 44 598 l 1,32,-1
EndSplineSet
EndChar

StartChar: w
Encoding: 119 119 68
Width: 550
Flags: W
LayerCount: 2
Back
Fore
SplineSet
224 356 m 1,0,-1
 326 356 l 1,1,-1
 326 256 l 1,2,-1
 224 256 l 1,3,-1
 224 356 l 1,0,-1
404 118 m 1,4,-1
 506 118 l 1,5,-1
 506 18 l 1,6,-1
 404 18 l 1,7,-1
 404 118 l 1,4,-1
404 238 m 1,8,-1
 506 238 l 1,9,-1
 506 138 l 1,10,-1
 404 138 l 1,11,-1
 404 238 l 1,8,-1
404 358 m 1,12,-1
 506 358 l 1,13,-1
 506 258 l 1,14,-1
 404 258 l 1,15,-1
 404 358 l 1,12,-1
404 478 m 1,16,-1
 506 478 l 1,17,-1
 506 378 l 1,18,-1
 404 378 l 1,19,-1
 404 478 l 1,16,-1
404 598 m 1,20,-1
 506 598 l 1,21,-1
 506 498 l 1,22,-1
 404 498 l 1,23,-1
 404 598 l 1,20,-1
284 238 m 1,24,-1
 386 238 l 1,25,-1
 386 138 l 1,26,-1
 284 138 l 1,27,-1
 284 238 l 1,24,-1
164 238 m 1,28,-1
 266 238 l 1,29,-1
 266 138 l 1,30,-1
 164 138 l 1,31,-1
 164 238 l 1,28,-1
44 119 m 1,32,-1
 146 119 l 1,33,-1
 146 19 l 1,34,-1
 44 19 l 1,35,-1
 44 119 l 1,32,-1
44 238 m 1,36,-1
 146 238 l 1,37,-1
 146 138 l 1,38,-1
 44 138 l 1,39,-1
 44 238 l 1,36,-1
44 358 m 1,40,-1
 146 358 l 1,41,-1
 146 258 l 1,42,-1
 44 258 l 1,43,-1
 44 358 l 1,40,-1
44 479 m 1,44,-1
 146 479 l 1,45,-1
 146 379 l 1,46,-1
 44 379 l 1,47,-1
 44 479 l 1,44,-1
44 598 m 1,48,-1
 146 598 l 1,49,-1
 146 498 l 1,50,-1
 44 498 l 1,51,-1
 44 598 l 1,48,-1
EndSplineSet
EndChar

StartChar: x
Encoding: 120 120 69
Width: 550
Flags: W
LayerCount: 2
Back
Fore
SplineSet
404 118 m 1,0,-1
 506 118 l 1,1,-1
 506 18 l 1,2,-1
 404 18 l 1,3,-1
 404 118 l 1,0,-1
404 598 m 1,4,-1
 506 598 l 1,5,-1
 506 498 l 1,6,-1
 404 498 l 1,7,-1
 404 598 l 1,4,-1
317 238 m 1,8,-1
 419 238 l 1,9,-1
 419 138 l 1,10,-1
 317 138 l 1,11,-1
 317 238 l 1,8,-1
225 358 m 1,12,-1
 327 358 l 1,13,-1
 327 258 l 1,14,-1
 225 258 l 1,15,-1
 225 358 l 1,12,-1
314 479 m 1,16,-1
 416 479 l 1,17,-1
 416 379 l 1,18,-1
 314 379 l 1,19,-1
 314 479 l 1,16,-1
135 238 m 1,20,-1
 237 238 l 1,21,-1
 237 138 l 1,22,-1
 135 138 l 1,23,-1
 135 238 l 1,20,-1
136 478 m 1,24,-1
 238 478 l 1,25,-1
 238 378 l 1,26,-1
 136 378 l 1,27,-1
 136 478 l 1,24,-1
44 119 m 1,28,-1
 146 119 l 1,29,-1
 146 19 l 1,30,-1
 44 19 l 1,31,-1
 44 119 l 1,28,-1
44 598 m 1,32,-1
 146 598 l 1,33,-1
 146 498 l 1,34,-1
 44 498 l 1,35,-1
 44 598 l 1,32,-1
EndSplineSet
EndChar

StartChar: y
Encoding: 121 121 70
Width: 550
Flags: W
LayerCount: 2
Back
Fore
SplineSet
404 478 m 1,0,-1
 506 478 l 1,1,-1
 506 378 l 1,2,-1
 404 378 l 1,3,-1
 404 478 l 1,0,-1
404 598 m 1,4,-1
 506 598 l 1,5,-1
 506 498 l 1,6,-1
 404 498 l 1,7,-1
 404 598 l 1,4,-1
225 119 m 1,8,-1
 327 119 l 1,9,-1
 327 19 l 1,10,-1
 225 19 l 1,11,-1
 225 119 l 1,8,-1
225 238 m 1,12,-1
 327 238 l 1,13,-1
 327 138 l 1,14,-1
 225 138 l 1,15,-1
 225 238 l 1,12,-1
284 360 m 1,16,-1
 386 360 l 1,17,-1
 386 260 l 1,18,-1
 284 260 l 1,19,-1
 284 360 l 1,16,-1
164 359 m 1,20,-1
 266 359 l 1,21,-1
 266 259 l 1,22,-1
 164 259 l 1,23,-1
 164 359 l 1,20,-1
44 479 m 1,24,-1
 146 479 l 1,25,-1
 146 379 l 1,26,-1
 44 379 l 1,27,-1
 44 479 l 1,24,-1
44 598 m 1,28,-1
 146 598 l 1,29,-1
 146 498 l 1,30,-1
 44 498 l 1,31,-1
 44 598 l 1,28,-1
EndSplineSet
EndChar

StartChar: z
Encoding: 122 122 71
Width: 550
Flags: W
LayerCount: 2
Back
Fore
SplineSet
404 118 m 1,0,-1
 506 118 l 1,1,-1
 506 18 l 1,2,-1
 404 18 l 1,3,-1
 404 118 l 1,0,-1
404 478 m 1,4,-1
 506 478 l 1,5,-1
 506 378 l 1,6,-1
 404 378 l 1,7,-1
 404 478 l 1,4,-1
404 598 m 1,8,-1
 506 598 l 1,9,-1
 506 498 l 1,10,-1
 404 498 l 1,11,-1
 404 598 l 1,8,-1
284 119 m 1,12,-1
 386 119 l 1,13,-1
 386 19 l 1,14,-1
 284 19 l 1,15,-1
 284 119 l 1,12,-1
284 358 m 1,16,-1
 386 358 l 1,17,-1
 386 258 l 1,18,-1
 284 258 l 1,19,-1
 284 358 l 1,16,-1
284 598 m 1,20,-1
 386 598 l 1,21,-1
 386 498 l 1,22,-1
 284 498 l 1,23,-1
 284 598 l 1,20,-1
164 118 m 1,24,-1
 266 118 l 1,25,-1
 266 18 l 1,26,-1
 164 18 l 1,27,-1
 164 118 l 1,24,-1
164 358 m 1,28,-1
 266 358 l 1,29,-1
 266 258 l 1,30,-1
 164 258 l 1,31,-1
 164 358 l 1,28,-1
164 598 m 1,32,-1
 266 598 l 1,33,-1
 266 498 l 1,34,-1
 164 498 l 1,35,-1
 164 598 l 1,32,-1
44 119 m 1,36,-1
 146 119 l 1,37,-1
 146 19 l 1,38,-1
 44 19 l 1,39,-1
 44 119 l 1,36,-1
44 238 m 1,40,-1
 146 238 l 1,41,-1
 146 138 l 1,42,-1
 44 138 l 1,43,-1
 44 238 l 1,40,-1
44 598 m 1,44,-1
 146 598 l 1,45,-1
 146 498 l 1,46,-1
 44 498 l 1,47,-1
 44 598 l 1,44,-1
EndSplineSet
EndChar

StartChar: backslash
Encoding: 92 92 72
Width: 755
Flags: W
LayerCount: 2
Back
Fore
SplineSet
505 82 m 5,0,-1
 607 82 l 5,1,-1
 607 182 l 5,2,-1
 505 182 l 5,3,-1
 505 82 l 5,0,-1
385 202 m 5,4,-1
 487 202 l 5,5,-1
 487 302 l 5,6,-1
 385 302 l 5,7,-1
 385 202 l 5,4,-1
265 322 m 5,8,-1
 367 322 l 5,9,-1
 367 422 l 5,10,-1
 265 422 l 5,11,-1
 265 322 l 5,8,-1
145 441 m 5,12,-1
 247 441 l 5,13,-1
 247 541 l 5,14,-1
 145 541 l 5,15,-1
 145 441 l 5,12,-1
EndSplineSet
EndChar
